<?xml version="1.0" encoding="UTF-8"?>
<svg width="35px" height="35px" viewBox="0 0 35 35" version="1.1" xmlns="http://www.w3.org/2000/svg" xmlns:xlink="http://www.w3.org/1999/xlink">
    <!-- Generator: Sketch 50.2 (55047) - http://www.bohemiancoding.com/sketch -->
    <title>Group 3</title>
    <desc>Created with Sketch.</desc>
    <defs></defs>
    <g id="Contacto" stroke="none" stroke-width="1" fill="none" fill-rule="evenodd">
        <g id="Desktop-Copy" transform="translate(-673.000000, -1353.000000)">
            <g id="Footer" transform="translate(1.000000, 1228.000000)">
                <g id="Group-3" transform="translate(673.000000, 126.000000)">
                    <circle id="Oval" stroke="#FFFFFF" cx="16.5" cy="16.5" r="16.5"></circle>
                    <path d="M17.422271,14.2901783 L17.422271,13.1398946 C17.422271,12.58828 17.7876519,12.4561873 18.0521208,12.4561873 C18.3083693,12.4561873 19.6607605,12.4561873 19.6607605,12.4561873 L19.6607605,10 L17.4457983,10 C14.9819575,10 14.4300594,11.8186841 14.4300594,13.0001485 L14.4300594,14.2901783 L13,14.2901783 L13,17.1582341 L14.4456498,17.1582341 C14.4456498,20.4146311 14.4456498,24.3241216 14.4456498,24.3241216 L17.3137056,24.3241216 C17.3137056,24.3241216 17.3137056,20.3602066 17.3137056,17.1582341 L19.4354092,17.1582341 L19.5286678,16.0311942 L19.6995946,14.2901783 L17.422271,14.2901783" id="Fill-40" fill="#FFFFFF"></path>
                </g>
            </g>
        </g>
    </g>
</svg>