<?xml version="1.0" encoding="UTF-8"?>
<svg width="35px" height="35px" viewBox="0 0 35 35" version="1.1" xmlns="http://www.w3.org/2000/svg" xmlns:xlink="http://www.w3.org/1999/xlink">
    <!-- Generator: Sketch 50.2 (55047) - http://www.bohemiancoding.com/sketch -->
    <title>Group</title>
    <desc>Created with Sketch.</desc>
    <defs></defs>
    <g id="Contacto" stroke="none" stroke-width="1" fill="none" fill-rule="evenodd">
        <g id="Desktop-Copy" transform="translate(-685.000000, -879.000000)">
            <g id="Content" transform="translate(178.000000, 655.000000)">
                <g id="Group" transform="translate(508.000000, 225.000000)">
                    <circle id="Oval" stroke="#454857" stroke-width="2" cx="16.5" cy="16.5" r="16.5"></circle>
                    <path d="M17.4171983,13.2553872 L17.4171983,11.8463115 C17.4171983,11.170594 17.864783,11.008783 18.1887523,11.008783 C18.5026519,11.008783 20.1593055,11.008783 20.1593055,11.008783 L20.1593055,8 L17.4460187,8 C14.4278604,8 13.7517957,10.2278536 13.7517957,11.6751251 L13.7517957,13.2553872 L12,13.2553872 L12,16.7687013 L13.7708936,16.7687013 C13.7708936,20.757726 13.7708936,25.5467779 13.7708936,25.5467779 L17.2842077,25.5467779 C17.2842077,25.5467779 17.2842077,20.691057 17.2842077,16.7687013 L19.8832545,16.7687013 L19.9974945,15.3880987 L20.2068766,13.2553872 L17.4171983,13.2553872" id="Fill-40" fill="#414241"></path>
                </g>
            </g>
        </g>
    </g>
</svg>