<?xml version="1.0" encoding="UTF-8"?>
<svg width="50px" height="70px" viewBox="0 0 50 70" version="1.1" xmlns="http://www.w3.org/2000/svg" xmlns:xlink="http://www.w3.org/1999/xlink">
    <!-- Generator: Sketch 50.2 (55047) - http://www.bohemiancoding.com/sketch -->
    <title>Mirror Booth</title>
    <desc>Created with Sketch.</desc>
    <defs></defs>
    <g id="Servicios" stroke="none" stroke-width="1" fill="none" fill-rule="evenodd">
        <g id="Desktop-Copy-2" transform="translate(-400.000000, -782.000000)">
            <g id="Mirror-Booth" transform="translate(400.000000, 782.000000)">
                <polygon id="Fill-1" fill="#FEFEFE" points="0 69 49 69 49 0 0 0"></polygon>
                <path d="M0,70 L50,70 L50,0 L0,0 L0,70 Z M0.63294344,69.3664843 L49.367373,69.3664843 L49.367373,0.633515695 L0.63294344,0.633515695 L0.63294344,69.3664843 Z" id="Fill-2" fill="#231F20"></path>
                <polygon id="Fill-3" fill="#FEFEFE" points="4 64 46 64 46 4 4 4"></polygon>
                <path d="M4.62384885,64.3685987 L45.3761511,64.3685987 L45.3761511,4.63140135 L4.62384885,4.63140135 L4.62384885,64.3685987 Z M4,65 L46,65 L46,4 L4,4 L4,65 Z" id="Fill-4" fill="#231F20"></path>
                <polygon id="Fill-5" fill="#FEFEFE" points="8 60 41 60 41 10 8 10"></polygon>
                <path d="M8.62593488,60.365024 L40.3746907,60.365024 L40.3746907,10.634976 L8.62593488,10.634976 L8.62593488,60.365024 Z M8,61 L41,61 L41,10 L8,10 L8,61 Z" id="Fill-6" fill="#231F20"></path>
                <path d="M8,10 L0,0 L8,10 Z" id="Fill-7" fill="#FEFEFE"></path>
                <polygon id="Fill-8" fill="#231F20" points="0 0.458318778 8.51104226 11 9 10.5416812 0.48895774 0"></polygon>
                <path d="M0,70 L8,60 L0,70 Z" id="Fill-9" fill="#FEFEFE"></path>
                <polygon id="Fill-10" fill="#231F20" points="0 69.5833333 0.48895774 70 9 60.4166667 8.51104226 60"></polygon>
                <path d="M42,10 L50,0" id="Fill-11" fill="#FEFEFE"></path>
                <polygon id="Fill-12" fill="#231F20" points="40 10.5416812 40.5439481 11 50 0.458318778 49.4556916 0"></polygon>
                <path d="M50,70 L42,60 L50,70 Z" id="Fill-13" fill="#FEFEFE"></path>
                <polygon id="Fill-14" fill="#231F20" points="40 60.4166667 49.4556916 70 50 69.5833333 40.5439481 60"></polygon>
                <g id="Group-207" transform="translate(1.000000, 1.000000)">
                    <path d="M0.235610526,6.91308972 C0.235610526,6.34271589 0.695084211,5.88037944 1.26192632,5.88037944 C1.82876842,5.88037944 2.28824211,6.34271589 2.28824211,6.91308972 C2.28824211,7.48346355 1.82876842,7.9458 1.26192632,7.9458 C0.695084211,7.9458 0.235610526,7.48346355 0.235610526,6.91308972" id="Fill-15" fill="#FEFEFE"></path>
                    <path d="M1.26192632,6.03925794 C0.782873684,6.03925794 0.393505263,6.43105234 0.393505263,6.91308972 C0.393505263,7.3951271 0.782873684,7.7869215 1.26192632,7.7869215 C1.74097895,7.7869215 2.13034737,7.3951271 2.13034737,6.91308972 C2.13034737,6.43105234 1.74097895,6.03925794 1.26192632,6.03925794 M1.26192632,8.1046785 C0.608873684,8.1046785 0.0777157895,7.57021121 0.0777157895,6.91308972 C0.0777157895,6.25596822 0.608873684,5.72150093 1.26192632,5.72150093 C1.91497895,5.72150093 2.44613684,6.25596822 2.44613684,6.91308972 C2.44613684,7.57021121 1.91497895,8.1046785 1.26192632,8.1046785" id="Fill-17" fill="#231F20"></path>
                    <path d="M0.235610526,11.5205664 C0.235610526,10.9501925 0.695084211,10.4878561 1.26192632,10.4878561 C1.82876842,10.4878561 2.28824211,10.9501925 2.28824211,11.5205664 C2.28824211,12.0909402 1.82876842,12.5532766 1.26192632,12.5532766 C0.695084211,12.5532766 0.235610526,12.0909402 0.235610526,11.5205664" id="Fill-19" fill="#FEFEFE"></path>
                    <path d="M1.26192632,10.6467346 C0.782873684,10.6467346 0.393505263,11.038529 0.393505263,11.5205664 C0.393505263,12.0026037 0.782873684,12.3943981 1.26192632,12.3943981 C1.74097895,12.3943981 2.13034737,12.0026037 2.13034737,11.5205664 C2.13034737,11.038529 1.74097895,10.6467346 1.26192632,10.6467346 M1.26192632,12.7121551 C0.608873684,12.7121551 0.0777157895,12.1776879 0.0777157895,11.5205664 C0.0777157895,10.8634449 0.608873684,10.3289776 1.26192632,10.3289776 C1.91497895,10.3289776 2.44613684,10.8634449 2.44613684,11.5205664 C2.44613684,12.1776879 1.91497895,12.7121551 1.26192632,12.7121551" id="Fill-21" fill="#231F20"></path>
                    <path d="M0.235610526,16.128043 C0.235610526,15.5576692 0.695084211,15.0953327 1.26192632,15.0953327 C1.82876842,15.0953327 2.28824211,15.5576692 2.28824211,16.128043 C2.28824211,16.6984168 1.82876842,17.1607533 1.26192632,17.1607533 C0.695084211,17.1607533 0.235610526,16.6984168 0.235610526,16.128043" id="Fill-23" fill="#FEFEFE"></path>
                    <path d="M1.26192632,15.2542112 C0.782873684,15.2542112 0.393505263,15.6460056 0.393505263,16.128043 C0.393505263,16.6100804 0.782873684,17.0018748 1.26192632,17.0018748 C1.74097895,17.0018748 2.13034737,16.6100804 2.13034737,16.128043 C2.13034737,15.6460056 1.74097895,15.2542112 1.26192632,15.2542112 M1.26192632,17.3196318 C0.608873684,17.3196318 0.0777157895,16.7851645 0.0777157895,16.128043 C0.0777157895,15.4709215 0.608873684,14.9364542 1.26192632,14.9364542 C1.91497895,14.9364542 2.44613684,15.4709215 2.44613684,16.128043 C2.44613684,16.7851645 1.91497895,17.3196318 1.26192632,17.3196318" id="Fill-25" fill="#231F20"></path>
                    <path d="M0.235610526,20.7355196 C0.235610526,20.1651458 0.695084211,19.7028093 1.26192632,19.7028093 C1.82876842,19.7028093 2.28824211,20.1651458 2.28824211,20.7355196 C2.28824211,21.3058935 1.82876842,21.7682299 1.26192632,21.7682299 C0.695084211,21.7682299 0.235610526,21.3058935 0.235610526,20.7355196" id="Fill-27" fill="#FEFEFE"></path>
                    <path d="M1.26192632,19.8616879 C0.782873684,19.8616879 0.393505263,20.2534822 0.393505263,20.7355196 C0.393505263,21.217557 0.782873684,21.6093514 1.26192632,21.6093514 C1.74097895,21.6093514 2.13034737,21.217557 2.13034737,20.7355196 C2.13034737,20.2534822 1.74097895,19.8616879 1.26192632,19.8616879 M1.26192632,21.9271084 C0.608873684,21.9271084 0.0777157895,21.3926411 0.0777157895,20.7355196 C0.0777157895,20.0783981 0.608873684,19.5439308 1.26192632,19.5439308 C1.91497895,19.5439308 2.44613684,20.0783981 2.44613684,20.7355196 C2.44613684,21.3926411 1.91497895,21.9271084 1.26192632,21.9271084" id="Fill-29" fill="#231F20"></path>
                    <path d="M0.235610526,25.3429963 C0.235610526,24.7726224 0.695084211,24.310286 1.26192632,24.310286 C1.82876842,24.310286 2.28824211,24.7726224 2.28824211,25.3429963 C2.28824211,25.9133701 1.82876842,26.3757065 1.26192632,26.3757065 C0.695084211,26.3757065 0.235610526,25.9133701 0.235610526,25.3429963" id="Fill-31" fill="#FEFEFE"></path>
                    <path d="M1.26192632,24.4691645 C0.782873684,24.4691645 0.393505263,24.8609589 0.393505263,25.3429963 C0.393505263,25.8250336 0.782873684,26.216828 1.26192632,26.216828 C1.74097895,26.216828 2.13034737,25.8250336 2.13034737,25.3429963 C2.13034737,24.8609589 1.74097895,24.4691645 1.26192632,24.4691645 M1.26192632,26.534585 C0.608873684,26.534585 0.0777157895,26.0001178 0.0777157895,25.3429963 C0.0777157895,24.6858748 0.608873684,24.1514075 1.26192632,24.1514075 C1.91497895,24.1514075 2.44613684,24.6858748 2.44613684,25.3429963 C2.44613684,26.0001178 1.91497895,26.534585 1.26192632,26.534585" id="Fill-33" fill="#231F20"></path>
                    <path d="M0.235610526,29.9504729 C0.235610526,29.3800991 0.695084211,28.9177626 1.26192632,28.9177626 C1.82876842,28.9177626 2.28824211,29.3800991 2.28824211,29.9504729 C2.28824211,30.5208467 1.82876842,30.9831832 1.26192632,30.9831832 C0.695084211,30.9831832 0.235610526,30.5208467 0.235610526,29.9504729" id="Fill-35" fill="#FEFEFE"></path>
                    <path d="M1.26192632,29.0766411 C0.782873684,29.0766411 0.393505263,29.4684355 0.393505263,29.9504729 C0.393505263,30.4325103 0.782873684,30.8243047 1.26192632,30.8243047 C1.74097895,30.8243047 2.13034737,30.4325103 2.13034737,29.9504729 C2.13034737,29.4684355 1.74097895,29.0766411 1.26192632,29.0766411 M1.26192632,31.1420617 C0.608873684,31.1420617 0.0777157895,30.6075944 0.0777157895,29.9504729 C0.0777157895,29.2933514 0.608873684,28.7588841 1.26192632,28.7588841 C1.91497895,28.7588841 2.44613684,29.2933514 2.44613684,29.9504729 C2.44613684,30.6075944 1.91497895,31.1420617 1.26192632,31.1420617" id="Fill-37" fill="#231F20"></path>
                    <path d="M0.235610526,34.5579495 C0.235610526,33.9875757 0.695084211,33.5252393 1.26192632,33.5252393 C1.82876842,33.5252393 2.28824211,33.9875757 2.28824211,34.5579495 C2.28824211,35.1283234 1.82876842,35.5906598 1.26192632,35.5906598 C0.695084211,35.5906598 0.235610526,35.1283234 0.235610526,34.5579495" id="Fill-39" fill="#FEFEFE"></path>
                    <path d="M1.26192632,33.6841178 C0.782873684,33.6841178 0.393505263,34.0759121 0.393505263,34.5579495 C0.393505263,35.0399869 0.782873684,35.4317813 1.26192632,35.4317813 C1.74097895,35.4317813 2.13034737,35.0399869 2.13034737,34.5579495 C2.13034737,34.0759121 1.74097895,33.6841178 1.26192632,33.6841178 M1.26192632,35.7495383 C0.608873684,35.7495383 0.0777157895,35.2147533 0.0777157895,34.5579495 C0.0777157895,33.900828 0.608873684,33.3663607 1.26192632,33.3663607 C1.91497895,33.3663607 2.44613684,33.900828 2.44613684,34.5579495 C2.44613684,35.2147533 1.91497895,35.7495383 1.26192632,35.7495383" id="Fill-41" fill="#231F20"></path>
                    <path d="M0.235610526,39.1654262 C0.235610526,38.5950523 0.695084211,38.1327159 1.26192632,38.1327159 C1.82876842,38.1327159 2.28824211,38.5950523 2.28824211,39.1654262 C2.28824211,39.7358 1.82876842,40.1981364 1.26192632,40.1981364 C0.695084211,40.1981364 0.235610526,39.7358 0.235610526,39.1654262" id="Fill-43" fill="#FEFEFE"></path>
                    <path d="M1.26192632,38.2915944 C0.782873684,38.2915944 0.393505263,38.6833888 0.393505263,39.1654262 C0.393505263,39.6474636 0.782873684,40.0392579 1.26192632,40.0392579 C1.74097895,40.0392579 2.13034737,39.6474636 2.13034737,39.1654262 C2.13034737,38.6833888 1.74097895,38.2915944 1.26192632,38.2915944 M1.26192632,40.357015 C0.608873684,40.357015 0.0777157895,39.8222299 0.0777157895,39.1654262 C0.0777157895,38.5086224 0.608873684,37.9738374 1.26192632,37.9738374 C1.91497895,37.9738374 2.44613684,38.5086224 2.44613684,39.1654262 C2.44613684,39.8222299 1.91497895,40.357015 1.26192632,40.357015" id="Fill-45" fill="#231F20"></path>
                    <path d="M0.235610526,43.7729028 C0.235610526,43.202529 0.695084211,42.7401925 1.26192632,42.7401925 C1.82876842,42.7401925 2.28824211,43.202529 2.28824211,43.7729028 C2.28824211,44.3432766 1.82876842,44.8056131 1.26192632,44.8056131 C0.695084211,44.8056131 0.235610526,44.3432766 0.235610526,43.7729028" id="Fill-47" fill="#FEFEFE"></path>
                    <path d="M1.26192632,42.899071 C0.782873684,42.899071 0.393505263,43.2908654 0.393505263,43.7729028 C0.393505263,44.2549402 0.782873684,44.6467346 1.26192632,44.6467346 C1.74097895,44.6467346 2.13034737,44.2549402 2.13034737,43.7729028 C2.13034737,43.2908654 1.74097895,42.899071 1.26192632,42.899071 M1.26192632,44.9644916 C0.608873684,44.9644916 0.0777157895,44.4297065 0.0777157895,43.7729028 C0.0777157895,43.1160991 0.608873684,42.581314 1.26192632,42.581314 C1.91497895,42.581314 2.44613684,43.1160991 2.44613684,43.7729028 C2.44613684,44.4297065 1.91497895,44.9644916 1.26192632,44.9644916" id="Fill-49" fill="#231F20"></path>
                    <path d="M0.235610526,48.3803794 C0.235610526,47.8100056 0.695084211,47.3476692 1.26192632,47.3476692 C1.82876842,47.3476692 2.28824211,47.8100056 2.28824211,48.3803794 C2.28824211,48.9507533 1.82876842,49.4130897 1.26192632,49.4130897 C0.695084211,49.4130897 0.235610526,48.9507533 0.235610526,48.3803794" id="Fill-51" fill="#FEFEFE"></path>
                    <path d="M1.26192632,47.5065477 C0.782873684,47.5065477 0.393505263,47.8983421 0.393505263,48.3803794 C0.393505263,48.8624168 0.782873684,49.2542112 1.26192632,49.2542112 C1.74097895,49.2542112 2.13034737,48.8624168 2.13034737,48.3803794 C2.13034737,47.8983421 1.74097895,47.5065477 1.26192632,47.5065477 M1.26192632,49.5719682 C0.608873684,49.5719682 0.0777157895,49.0371832 0.0777157895,48.3803794 C0.0777157895,47.7235757 0.608873684,47.1887907 1.26192632,47.1887907 C1.91497895,47.1887907 2.44613684,47.7235757 2.44613684,48.3803794 C2.44613684,49.0371832 1.91497895,49.5719682 1.26192632,49.5719682" id="Fill-53" fill="#231F20"></path>
                    <path d="M0.235610526,52.9878561 C0.235610526,52.4174822 0.695084211,51.9551458 1.26192632,51.9551458 C1.82876842,51.9551458 2.28824211,52.4174822 2.28824211,52.9878561 C2.28824211,53.5582299 1.82876842,54.0205664 1.26192632,54.0205664 C0.695084211,54.0205664 0.235610526,53.5582299 0.235610526,52.9878561" id="Fill-55" fill="#FEFEFE"></path>
                    <path d="M1.26192632,52.1140243 C0.782873684,52.1140243 0.393505263,52.5058187 0.393505263,52.9878561 C0.393505263,53.4698935 0.782873684,53.8616879 1.26192632,53.8616879 C1.74097895,53.8616879 2.13034737,53.4698935 2.13034737,52.9878561 C2.13034737,52.5058187 1.74097895,52.1140243 1.26192632,52.1140243 M1.26192632,54.1794449 C0.608873684,54.1794449 0.0777157895,53.6446598 0.0777157895,52.9878561 C0.0777157895,52.3310523 0.608873684,51.7962673 1.26192632,51.7962673 C1.91497895,51.7962673 2.44613684,52.3310523 2.44613684,52.9878561 C2.44613684,53.6446598 1.91497895,54.1794449 1.26192632,54.1794449" id="Fill-57" fill="#231F20"></path>
                    <path d="M0.235610526,57.5953327 C0.235610526,57.0249589 0.695084211,56.5626224 1.26192632,56.5626224 C1.82876842,56.5626224 2.28824211,57.0249589 2.28824211,57.5953327 C2.28824211,58.1657065 1.82876842,58.628043 1.26192632,58.628043 C0.695084211,58.628043 0.235610526,58.1657065 0.235610526,57.5953327" id="Fill-59" fill="#FEFEFE"></path>
                    <path d="M1.26192632,56.7215009 C0.782873684,56.7215009 0.393505263,57.1132953 0.393505263,57.5953327 C0.393505263,58.0773701 0.782873684,58.4691645 1.26192632,58.4691645 C1.74097895,58.4691645 2.13034737,58.0773701 2.13034737,57.5953327 C2.13034737,57.1132953 1.74097895,56.7215009 1.26192632,56.7215009 M1.26192632,58.7869215 C0.608873684,58.7869215 0.0777157895,58.2521364 0.0777157895,57.5953327 C0.0777157895,56.938529 0.608873684,56.4037439 1.26192632,56.4037439 C1.91497895,56.4037439 2.44613684,56.938529 2.44613684,57.5953327 C2.44613684,58.2521364 1.91497895,58.7869215 1.26192632,58.7869215" id="Fill-61" fill="#231F20"></path>
                    <path d="M0.235610526,62.2028093 C0.235610526,61.6324355 0.695084211,61.1700991 1.26192632,61.1700991 C1.82876842,61.1700991 2.28824211,61.6324355 2.28824211,62.2028093 C2.28824211,62.7731832 1.82876842,63.2355196 1.26192632,63.2355196 C0.695084211,63.2355196 0.235610526,62.7731832 0.235610526,62.2028093" id="Fill-63" fill="#FEFEFE"></path>
                    <path d="M1.26192632,61.3289776 C0.782873684,61.3289776 0.393505263,61.720772 0.393505263,62.2028093 C0.393505263,62.6848467 0.782873684,63.0766411 1.26192632,63.0766411 C1.74097895,63.0766411 2.13034737,62.6848467 2.13034737,62.2028093 C2.13034737,61.720772 1.74097895,61.3289776 1.26192632,61.3289776 M1.26192632,63.3943981 C0.608873684,63.3943981 0.0777157895,62.8596131 0.0777157895,62.2028093 C0.0777157895,61.5460056 0.608873684,61.0112206 1.26192632,61.0112206 C1.91497895,61.0112206 2.44613684,61.5460056 2.44613684,62.2028093 C2.44613684,62.8596131 1.91497895,63.3943981 1.26192632,63.3943981" id="Fill-65" fill="#231F20"></path>
                    <path d="M45.7092947,6.91308972 C45.7092947,6.34271589 46.1687684,5.88037944 46.7356105,5.88037944 C47.3024526,5.88037944 47.7619263,6.34271589 47.7619263,6.91308972 C47.7619263,7.48346355 47.3024526,7.9458 46.7356105,7.9458 C46.1687684,7.9458 45.7092947,7.48346355 45.7092947,6.91308972" id="Fill-67" fill="#FEFEFE"></path>
                    <path d="M46.7356105,6.03925794 C46.2565579,6.03925794 45.8671895,6.43105234 45.8671895,6.91308972 C45.8671895,7.3951271 46.2565579,7.7869215 46.7356105,7.7869215 C47.2146632,7.7869215 47.6040316,7.3951271 47.6040316,6.91308972 C47.6040316,6.43105234 47.2146632,6.03925794 46.7356105,6.03925794 M46.7356105,8.1046785 C46.0828737,8.1046785 45.5514,7.57021121 45.5514,6.91308972 C45.5514,6.25596822 46.0828737,5.72150093 46.7356105,5.72150093 C47.3883474,5.72150093 47.9198211,6.25596822 47.9198211,6.91308972 C47.9198211,7.57021121 47.3883474,8.1046785 46.7356105,8.1046785" id="Fill-69" fill="#231F20"></path>
                    <path d="M45.7092947,11.5205664 C45.7092947,10.9501925 46.1687684,10.4878561 46.7356105,10.4878561 C47.3024526,10.4878561 47.7619263,10.9501925 47.7619263,11.5205664 C47.7619263,12.0909402 47.3024526,12.5532766 46.7356105,12.5532766 C46.1687684,12.5532766 45.7092947,12.0909402 45.7092947,11.5205664" id="Fill-71" fill="#FEFEFE"></path>
                    <path d="M46.7356105,10.6467346 C46.2565579,10.6467346 45.8671895,11.038529 45.8671895,11.5205664 C45.8671895,12.0026037 46.2565579,12.3943981 46.7356105,12.3943981 C47.2146632,12.3943981 47.6040316,12.0026037 47.6040316,11.5205664 C47.6040316,11.038529 47.2146632,10.6467346 46.7356105,10.6467346 M46.7356105,12.7121551 C46.0828737,12.7121551 45.5514,12.1776879 45.5514,11.5205664 C45.5514,10.8634449 46.0828737,10.3289776 46.7356105,10.3289776 C47.3883474,10.3289776 47.9198211,10.8634449 47.9198211,11.5205664 C47.9198211,12.1776879 47.3883474,12.7121551 46.7356105,12.7121551" id="Fill-73" fill="#231F20"></path>
                    <path d="M45.7092947,16.128043 C45.7092947,15.5576692 46.1687684,15.0953327 46.7356105,15.0953327 C47.3024526,15.0953327 47.7619263,15.5576692 47.7619263,16.128043 C47.7619263,16.6984168 47.3024526,17.1607533 46.7356105,17.1607533 C46.1687684,17.1607533 45.7092947,16.6984168 45.7092947,16.128043" id="Fill-75" fill="#FEFEFE"></path>
                    <path d="M46.7356105,15.2542112 C46.2565579,15.2542112 45.8671895,15.6460056 45.8671895,16.128043 C45.8671895,16.6100804 46.2565579,17.0018748 46.7356105,17.0018748 C47.2146632,17.0018748 47.6040316,16.6100804 47.6040316,16.128043 C47.6040316,15.6460056 47.2146632,15.2542112 46.7356105,15.2542112 M46.7356105,17.3196318 C46.0828737,17.3196318 45.5514,16.7851645 45.5514,16.128043 C45.5514,15.4709215 46.0828737,14.9364542 46.7356105,14.9364542 C47.3883474,14.9364542 47.9198211,15.4709215 47.9198211,16.128043 C47.9198211,16.7851645 47.3883474,17.3196318 46.7356105,17.3196318" id="Fill-77" fill="#231F20"></path>
                    <path d="M45.7092947,20.7355196 C45.7092947,20.1651458 46.1687684,19.7028093 46.7356105,19.7028093 C47.3024526,19.7028093 47.7619263,20.1651458 47.7619263,20.7355196 C47.7619263,21.3058935 47.3024526,21.7682299 46.7356105,21.7682299 C46.1687684,21.7682299 45.7092947,21.3058935 45.7092947,20.7355196" id="Fill-79" fill="#FEFEFE"></path>
                    <path d="M46.7356105,19.8616879 C46.2565579,19.8616879 45.8671895,20.2534822 45.8671895,20.7355196 C45.8671895,21.217557 46.2565579,21.6093514 46.7356105,21.6093514 C47.2146632,21.6093514 47.6040316,21.217557 47.6040316,20.7355196 C47.6040316,20.2534822 47.2146632,19.8616879 46.7356105,19.8616879 M46.7356105,21.9271084 C46.0828737,21.9271084 45.5514,21.3926411 45.5514,20.7355196 C45.5514,20.0783981 46.0828737,19.5439308 46.7356105,19.5439308 C47.3883474,19.5439308 47.9198211,20.0783981 47.9198211,20.7355196 C47.9198211,21.3926411 47.3883474,21.9271084 46.7356105,21.9271084" id="Fill-81" fill="#231F20"></path>
                    <path d="M45.7092947,25.3429963 C45.7092947,24.7726224 46.1687684,24.310286 46.7356105,24.310286 C47.3024526,24.310286 47.7619263,24.7726224 47.7619263,25.3429963 C47.7619263,25.9133701 47.3024526,26.3757065 46.7356105,26.3757065 C46.1687684,26.3757065 45.7092947,25.9133701 45.7092947,25.3429963" id="Fill-83" fill="#FEFEFE"></path>
                    <path d="M46.7356105,24.4691645 C46.2565579,24.4691645 45.8671895,24.8609589 45.8671895,25.3429963 C45.8671895,25.8250336 46.2565579,26.216828 46.7356105,26.216828 C47.2146632,26.216828 47.6040316,25.8250336 47.6040316,25.3429963 C47.6040316,24.8609589 47.2146632,24.4691645 46.7356105,24.4691645 M46.7356105,26.534585 C46.0828737,26.534585 45.5514,26.0001178 45.5514,25.3429963 C45.5514,24.6858748 46.0828737,24.1514075 46.7356105,24.1514075 C47.3883474,24.1514075 47.9198211,24.6858748 47.9198211,25.3429963 C47.9198211,26.0001178 47.3883474,26.534585 46.7356105,26.534585" id="Fill-85" fill="#231F20"></path>
                    <path d="M45.7092947,29.9504729 C45.7092947,29.3800991 46.1687684,28.9177626 46.7356105,28.9177626 C47.3024526,28.9177626 47.7619263,29.3800991 47.7619263,29.9504729 C47.7619263,30.5208467 47.3024526,30.9831832 46.7356105,30.9831832 C46.1687684,30.9831832 45.7092947,30.5208467 45.7092947,29.9504729" id="Fill-87" fill="#FEFEFE"></path>
                    <path d="M46.7356105,29.0766411 C46.2565579,29.0766411 45.8671895,29.4684355 45.8671895,29.9504729 C45.8671895,30.4325103 46.2565579,30.8243047 46.7356105,30.8243047 C47.2146632,30.8243047 47.6040316,30.4325103 47.6040316,29.9504729 C47.6040316,29.4684355 47.2146632,29.0766411 46.7356105,29.0766411 M46.7356105,31.1420617 C46.0828737,31.1420617 45.5514,30.6075944 45.5514,29.9504729 C45.5514,29.2933514 46.0828737,28.7588841 46.7356105,28.7588841 C47.3883474,28.7588841 47.9198211,29.2933514 47.9198211,29.9504729 C47.9198211,30.6075944 47.3883474,31.1420617 46.7356105,31.1420617" id="Fill-89" fill="#231F20"></path>
                    <path d="M45.7092947,34.5579495 C45.7092947,33.9875757 46.1687684,33.5252393 46.7356105,33.5252393 C47.3024526,33.5252393 47.7619263,33.9875757 47.7619263,34.5579495 C47.7619263,35.1283234 47.3024526,35.5906598 46.7356105,35.5906598 C46.1687684,35.5906598 45.7092947,35.1283234 45.7092947,34.5579495" id="Fill-91" fill="#FEFEFE"></path>
                    <path d="M46.7356105,33.6841178 C46.2565579,33.6841178 45.8671895,34.0759121 45.8671895,34.5579495 C45.8671895,35.0399869 46.2565579,35.4317813 46.7356105,35.4317813 C47.2146632,35.4317813 47.6040316,35.0399869 47.6040316,34.5579495 C47.6040316,34.0759121 47.2146632,33.6841178 46.7356105,33.6841178 M46.7356105,35.7495383 C46.0828737,35.7495383 45.5514,35.2147533 45.5514,34.5579495 C45.5514,33.900828 46.0828737,33.3663607 46.7356105,33.3663607 C47.3883474,33.3663607 47.9198211,33.900828 47.9198211,34.5579495 C47.9198211,35.2147533 47.3883474,35.7495383 46.7356105,35.7495383" id="Fill-93" fill="#231F20"></path>
                    <path d="M45.7092947,39.1654262 C45.7092947,38.5950523 46.1687684,38.1327159 46.7356105,38.1327159 C47.3024526,38.1327159 47.7619263,38.5950523 47.7619263,39.1654262 C47.7619263,39.7358 47.3024526,40.1981364 46.7356105,40.1981364 C46.1687684,40.1981364 45.7092947,39.7358 45.7092947,39.1654262" id="Fill-95" fill="#FEFEFE"></path>
                    <path d="M46.7356105,38.2915944 C46.2565579,38.2915944 45.8671895,38.6833888 45.8671895,39.1654262 C45.8671895,39.6474636 46.2565579,40.0392579 46.7356105,40.0392579 C47.2146632,40.0392579 47.6040316,39.6474636 47.6040316,39.1654262 C47.6040316,38.6833888 47.2146632,38.2915944 46.7356105,38.2915944 M46.7356105,40.357015 C46.0828737,40.357015 45.5514,39.8222299 45.5514,39.1654262 C45.5514,38.5086224 46.0828737,37.9738374 46.7356105,37.9738374 C47.3883474,37.9738374 47.9198211,38.5086224 47.9198211,39.1654262 C47.9198211,39.8222299 47.3883474,40.357015 46.7356105,40.357015" id="Fill-97" fill="#231F20"></path>
                    <path d="M45.7092947,43.7729028 C45.7092947,43.202529 46.1687684,42.7401925 46.7356105,42.7401925 C47.3024526,42.7401925 47.7619263,43.202529 47.7619263,43.7729028 C47.7619263,44.3432766 47.3024526,44.8056131 46.7356105,44.8056131 C46.1687684,44.8056131 45.7092947,44.3432766 45.7092947,43.7729028" id="Fill-99" fill="#FEFEFE"></path>
                    <path d="M46.7356105,42.899071 C46.2565579,42.899071 45.8671895,43.2908654 45.8671895,43.7729028 C45.8671895,44.2549402 46.2565579,44.6467346 46.7356105,44.6467346 C47.2146632,44.6467346 47.6040316,44.2549402 47.6040316,43.7729028 C47.6040316,43.2908654 47.2146632,42.899071 46.7356105,42.899071 M46.7356105,44.9644916 C46.0828737,44.9644916 45.5514,44.4297065 45.5514,43.7729028 C45.5514,43.1160991 46.0828737,42.581314 46.7356105,42.581314 C47.3883474,42.581314 47.9198211,43.1160991 47.9198211,43.7729028 C47.9198211,44.4297065 47.3883474,44.9644916 46.7356105,44.9644916" id="Fill-101" fill="#231F20"></path>
                    <path d="M45.7092947,48.3803794 C45.7092947,47.8100056 46.1687684,47.3476692 46.7356105,47.3476692 C47.3024526,47.3476692 47.7619263,47.8100056 47.7619263,48.3803794 C47.7619263,48.9507533 47.3024526,49.4130897 46.7356105,49.4130897 C46.1687684,49.4130897 45.7092947,48.9507533 45.7092947,48.3803794" id="Fill-103" fill="#FEFEFE"></path>
                    <path d="M46.7356105,47.5065477 C46.2565579,47.5065477 45.8671895,47.8983421 45.8671895,48.3803794 C45.8671895,48.8624168 46.2565579,49.2542112 46.7356105,49.2542112 C47.2146632,49.2542112 47.6040316,48.8624168 47.6040316,48.3803794 C47.6040316,47.8983421 47.2146632,47.5065477 46.7356105,47.5065477 M46.7356105,49.5719682 C46.0828737,49.5719682 45.5514,49.0371832 45.5514,48.3803794 C45.5514,47.7235757 46.0828737,47.1887907 46.7356105,47.1887907 C47.3883474,47.1887907 47.9198211,47.7235757 47.9198211,48.3803794 C47.9198211,49.0371832 47.3883474,49.5719682 46.7356105,49.5719682" id="Fill-105" fill="#231F20"></path>
                    <path d="M45.7092947,52.9878561 C45.7092947,52.4174822 46.1687684,51.9551458 46.7356105,51.9551458 C47.3024526,51.9551458 47.7619263,52.4174822 47.7619263,52.9878561 C47.7619263,53.5582299 47.3024526,54.0205664 46.7356105,54.0205664 C46.1687684,54.0205664 45.7092947,53.5582299 45.7092947,52.9878561" id="Fill-107" fill="#FEFEFE"></path>
                    <path d="M46.7356105,52.1140243 C46.2565579,52.1140243 45.8671895,52.5058187 45.8671895,52.9878561 C45.8671895,53.4698935 46.2565579,53.8616879 46.7356105,53.8616879 C47.2146632,53.8616879 47.6040316,53.4698935 47.6040316,52.9878561 C47.6040316,52.5058187 47.2146632,52.1140243 46.7356105,52.1140243 M46.7356105,54.1794449 C46.0828737,54.1794449 45.5514,53.6446598 45.5514,52.9878561 C45.5514,52.3310523 46.0828737,51.7962673 46.7356105,51.7962673 C47.3883474,51.7962673 47.9198211,52.3310523 47.9198211,52.9878561 C47.9198211,53.6446598 47.3883474,54.1794449 46.7356105,54.1794449" id="Fill-109" fill="#231F20"></path>
                    <path d="M45.7092947,57.5953327 C45.7092947,57.0249589 46.1687684,56.5626224 46.7356105,56.5626224 C47.3024526,56.5626224 47.7619263,57.0249589 47.7619263,57.5953327 C47.7619263,58.1657065 47.3024526,58.628043 46.7356105,58.628043 C46.1687684,58.628043 45.7092947,58.1657065 45.7092947,57.5953327" id="Fill-111" fill="#FEFEFE"></path>
                    <path d="M46.7356105,56.7215009 C46.2565579,56.7215009 45.8671895,57.1132953 45.8671895,57.5953327 C45.8671895,58.0773701 46.2565579,58.4691645 46.7356105,58.4691645 C47.2146632,58.4691645 47.6040316,58.0773701 47.6040316,57.5953327 C47.6040316,57.1132953 47.2146632,56.7215009 46.7356105,56.7215009 M46.7356105,58.7869215 C46.0828737,58.7869215 45.5514,58.2521364 45.5514,57.5953327 C45.5514,56.938529 46.0828737,56.4037439 46.7356105,56.4037439 C47.3883474,56.4037439 47.9198211,56.938529 47.9198211,57.5953327 C47.9198211,58.2521364 47.3883474,58.7869215 46.7356105,58.7869215" id="Fill-113" fill="#231F20"></path>
                    <path d="M45.7092947,62.2028093 C45.7092947,61.6324355 46.1687684,61.1700991 46.7356105,61.1700991 C47.3024526,61.1700991 47.7619263,61.6324355 47.7619263,62.2028093 C47.7619263,62.7731832 47.3024526,63.2355196 46.7356105,63.2355196 C46.1687684,63.2355196 45.7092947,62.7731832 45.7092947,62.2028093" id="Fill-115" fill="#FEFEFE"></path>
                    <path d="M46.7356105,61.3289776 C46.2565579,61.3289776 45.8671895,61.720772 45.8671895,62.2028093 C45.8671895,62.6848467 46.2565579,63.0766411 46.7356105,63.0766411 C47.2146632,63.0766411 47.6040316,62.6848467 47.6040316,62.2028093 C47.6040316,61.720772 47.2146632,61.3289776 46.7356105,61.3289776 M46.7356105,63.3943981 C46.0828737,63.3943981 45.5514,62.8596131 45.5514,62.2028093 C45.5514,61.5460056 46.0828737,61.0112206 46.7356105,61.0112206 C47.3883474,61.0112206 47.9198211,61.5460056 47.9198211,62.2028093 C47.9198211,62.8596131 47.3883474,63.3943981 46.7356105,63.3943981" id="Fill-117" fill="#231F20"></path>
                    <path d="M3.51293684,66.492529 C3.51293684,65.9221551 3.97241053,65.4598187 4.53925263,65.4598187 C5.10609474,65.4598187 5.56556842,65.9221551 5.56556842,66.492529 C5.56556842,67.0629028 5.10609474,67.5252393 4.53925263,67.5252393 C3.97241053,67.5252393 3.51293684,67.0629028 3.51293684,66.492529" id="Fill-119" fill="#FEFEFE"></path>
                    <path d="M4.53931579,65.6186972 C4.06026316,65.6186972 3.67089474,66.0104916 3.67089474,66.492529 C3.67089474,66.9745664 4.06026316,67.3663607 4.53931579,67.3663607 C5.01836842,67.3663607 5.40773684,66.9745664 5.40773684,66.492529 C5.40773684,66.0104916 5.01836842,65.6186972 4.53931579,65.6186972 M4.53931579,67.6841178 C3.88626316,67.6841178 3.35510526,67.1493327 3.35510526,66.492529 C3.35510526,65.8357252 3.88626316,65.3009402 4.53931579,65.3009402 C5.19236842,65.3009402 5.72352632,65.8357252 5.72352632,66.492529 C5.72352632,67.1493327 5.19236842,67.6841178 4.53931579,67.6841178" id="Fill-121" fill="#231F20"></path>
                    <path d="M7.41982105,66.492529 C7.41982105,65.9221551 7.87929474,65.4598187 8.44613684,65.4598187 C9.01297895,65.4598187 9.47245263,65.9221551 9.47245263,66.492529 C9.47245263,67.0629028 9.01297895,67.5252393 8.44613684,67.5252393 C7.87929474,67.5252393 7.41982105,67.0629028 7.41982105,66.492529" id="Fill-123" fill="#FEFEFE"></path>
                    <path d="M8.44613684,65.6186972 C7.96708421,65.6186972 7.57771579,66.0104916 7.57771579,66.492529 C7.57771579,66.9745664 7.96708421,67.3663607 8.44613684,67.3663607 C8.92518947,67.3663607 9.31455789,66.9745664 9.31455789,66.492529 C9.31455789,66.0104916 8.92518947,65.6186972 8.44613684,65.6186972 M8.44613684,67.6841178 C7.79308421,67.6841178 7.26192632,67.1493327 7.26192632,66.492529 C7.26192632,65.8357252 7.79308421,65.3009402 8.44613684,65.3009402 C9.09918947,65.3009402 9.63034737,65.8357252 9.63034737,66.492529 C9.63034737,67.1493327 9.09918947,67.6841178 8.44613684,67.6841178" id="Fill-125" fill="#231F20"></path>
                    <path d="M11.3267053,66.492529 C11.3267053,65.9221551 11.7861789,65.4598187 12.3530211,65.4598187 C12.9198632,65.4598187 13.3793368,65.9221551 13.3793368,66.492529 C13.3793368,67.0629028 12.9198632,67.5252393 12.3530211,67.5252393 C11.7861789,67.5252393 11.3267053,67.0629028 11.3267053,66.492529" id="Fill-127" fill="#FEFEFE"></path>
                    <path d="M12.3529579,65.6186972 C11.8739053,65.6186972 11.4845368,66.0104916 11.4845368,66.492529 C11.4845368,66.9745664 11.8739053,67.3663607 12.3529579,67.3663607 C12.8320105,67.3663607 13.2213789,66.9745664 13.2213789,66.492529 C13.2213789,66.0104916 12.8320105,65.6186972 12.3529579,65.6186972 M12.3529579,67.6841178 C11.6999053,67.6841178 11.1687474,67.1493327 11.1687474,66.492529 C11.1687474,65.8357252 11.6999053,65.3009402 12.3529579,65.3009402 C13.0060105,65.3009402 13.5371684,65.8357252 13.5371684,66.492529 C13.5371684,67.1493327 13.0060105,67.6841178 12.3529579,67.6841178" id="Fill-129" fill="#231F20"></path>
                    <path d="M15.2335579,66.492529 C15.2335579,65.9221551 15.6930316,65.4598187 16.2598737,65.4598187 C16.8267158,65.4598187 17.2861895,65.9221551 17.2861895,66.492529 C17.2861895,67.0629028 16.8267158,67.5252393 16.2598737,67.5252393 C15.6930316,67.5252393 15.2335579,67.0629028 15.2335579,66.492529" id="Fill-131" fill="#FEFEFE"></path>
                    <path d="M16.2599053,65.6186972 C15.7808526,65.6186972 15.3914842,66.0104916 15.3914842,66.492529 C15.3914842,66.9745664 15.7808526,67.3663607 16.2599053,67.3663607 C16.7389579,67.3663607 17.1283263,66.9745664 17.1283263,66.492529 C17.1283263,66.0104916 16.7389579,65.6186972 16.2599053,65.6186972 M16.2599053,67.6841178 C15.6068526,67.6841178 15.0756947,67.1493327 15.0756947,66.492529 C15.0756947,65.8357252 15.6068526,65.3009402 16.2599053,65.3009402 C16.9129579,65.3009402 17.4441158,65.8357252 17.4441158,66.492529 C17.4441158,67.1493327 16.9129579,67.6841178 16.2599053,67.6841178" id="Fill-133" fill="#231F20"></path>
                    <path d="M19.1404421,66.492529 C19.1404421,65.9221551 19.5999158,65.4598187 20.1667579,65.4598187 C20.7336,65.4598187 21.1930737,65.9221551 21.1930737,66.492529 C21.1930737,67.0629028 20.7336,67.5252393 20.1667579,67.5252393 C19.5999158,67.5252393 19.1404421,67.0629028 19.1404421,66.492529" id="Fill-135" fill="#FEFEFE"></path>
                    <path d="M20.1667263,65.6186972 C19.6876737,65.6186972 19.2983053,66.0104916 19.2983053,66.492529 C19.2983053,66.9745664 19.6876737,67.3663607 20.1667263,67.3663607 C20.6457789,67.3663607 21.0351474,66.9745664 21.0351474,66.492529 C21.0351474,66.0104916 20.6457789,65.6186972 20.1667263,65.6186972 M20.1667263,67.6841178 C19.5136737,67.6841178 18.9825158,67.1493327 18.9825158,66.492529 C18.9825158,65.8357252 19.5136737,65.3009402 20.1667263,65.3009402 C20.8197789,65.3009402 21.3509368,65.8357252 21.3509368,66.492529 C21.3509368,67.1493327 20.8197789,67.6841178 20.1667263,67.6841178" id="Fill-137" fill="#231F20"></path>
                    <path d="M23.0472947,66.492529 C23.0472947,65.9221551 23.5067684,65.4598187 24.0736105,65.4598187 C24.6404526,65.4598187 25.0999263,65.9221551 25.0999263,66.492529 C25.0999263,67.0629028 24.6404526,67.5252393 24.0736105,67.5252393 C23.5067684,67.5252393 23.0472947,67.0629028 23.0472947,66.492529" id="Fill-139" fill="#FEFEFE"></path>
                    <path d="M24.0735474,65.6186972 C23.5948105,65.6186972 23.2051263,66.0104916 23.2051263,66.492529 C23.2051263,66.9745664 23.5948105,67.3663607 24.0735474,67.3663607 C24.5526,67.3663607 24.9419684,66.9745664 24.9419684,66.492529 C24.9419684,66.0104916 24.5526,65.6186972 24.0735474,65.6186972 M24.0735474,67.6841178 C23.4204947,67.6841178 22.8893368,67.1493327 22.8893368,66.492529 C22.8893368,65.8357252 23.4204947,65.3009402 24.0735474,65.3009402 C24.7266,65.3009402 25.2577579,65.8357252 25.2577579,66.492529 C25.2577579,67.1493327 24.7266,67.6841178 24.0735474,67.6841178" id="Fill-141" fill="#231F20"></path>
                    <path d="M26.9541789,66.492529 C26.9541789,65.9221551 27.4136526,65.4598187 27.9804947,65.4598187 C28.5473368,65.4598187 29.0068105,65.9221551 29.0068105,66.492529 C29.0068105,67.0629028 28.5473368,67.5252393 27.9804947,67.5252393 C27.4136526,67.5252393 26.9541789,67.0629028 26.9541789,66.492529" id="Fill-143" fill="#FEFEFE"></path>
                    <path d="M27.9803684,65.6186972 C27.5013158,65.6186972 27.1119474,66.0104916 27.1119474,66.492529 C27.1119474,66.9745664 27.5013158,67.3663607 27.9803684,67.3663607 C28.4594211,67.3663607 28.8487895,66.9745664 28.8487895,66.492529 C28.8487895,66.0104916 28.4594211,65.6186972 27.9803684,65.6186972 M27.9803684,67.6841178 C27.3276316,67.6841178 26.7961579,67.1493327 26.7961579,66.492529 C26.7961579,65.8357252 27.3276316,65.3009402 27.9803684,65.3009402 C28.6331053,65.3009402 29.1645789,65.8357252 29.1645789,66.492529 C29.1645789,67.1493327 28.6331053,67.6841178 27.9803684,67.6841178" id="Fill-145" fill="#231F20"></path>
                    <path d="M30.8610316,66.492529 C30.8610316,65.9221551 31.3205053,65.4598187 31.8873474,65.4598187 C32.4541895,65.4598187 32.9136632,65.9221551 32.9136632,66.492529 C32.9136632,67.0629028 32.4541895,67.5252393 31.8873474,67.5252393 C31.3205053,67.5252393 30.8610316,67.0629028 30.8610316,66.492529" id="Fill-147" fill="#FEFEFE"></path>
                    <path d="M31.8873474,65.6186972 C31.4082947,65.6186972 31.0189263,66.0104916 31.0189263,66.492529 C31.0189263,66.9745664 31.4082947,67.3663607 31.8873474,67.3663607 C32.3664,67.3663607 32.7557684,66.9745664 32.7557684,66.492529 C32.7557684,66.0104916 32.3664,65.6186972 31.8873474,65.6186972 M31.8873474,67.6841178 C31.2346105,67.6841178 30.7031368,67.1493327 30.7031368,66.492529 C30.7031368,65.8357252 31.2346105,65.3009402 31.8873474,65.3009402 C32.5400842,65.3009402 33.0715579,65.8357252 33.0715579,66.492529 C33.0715579,67.1493327 32.5400842,67.6841178 31.8873474,67.6841178" id="Fill-149" fill="#231F20"></path>
                    <path d="M34.7679158,66.492529 C34.7679158,65.9221551 35.2273895,65.4598187 35.7942316,65.4598187 C36.3610737,65.4598187 36.8205474,65.9221551 36.8205474,66.492529 C36.8205474,67.0629028 36.3610737,67.5252393 35.7942316,67.5252393 C35.2273895,67.5252393 34.7679158,67.0629028 34.7679158,66.492529" id="Fill-151" fill="#FEFEFE"></path>
                    <path d="M35.7942947,65.6186972 C35.3152421,65.6186972 34.9258737,66.0104916 34.9258737,66.492529 C34.9258737,66.9745664 35.3152421,67.3663607 35.7942947,67.3663607 C36.2733474,67.3663607 36.6627158,66.9745664 36.6627158,66.492529 C36.6627158,66.0104916 36.2733474,65.6186972 35.7942947,65.6186972 M35.7942947,67.6841178 C35.1415579,67.6841178 34.6100842,67.1493327 34.6100842,66.492529 C34.6100842,65.8357252 35.1415579,65.3009402 35.7942947,65.3009402 C36.4470316,65.3009402 36.9785053,65.8357252 36.9785053,66.492529 C36.9785053,67.1493327 36.4470316,67.6841178 35.7942947,67.6841178" id="Fill-153" fill="#231F20"></path>
                    <path d="M38.6748,66.492529 C38.6748,65.9221551 39.1342737,65.4598187 39.7011158,65.4598187 C40.2679579,65.4598187 40.7274316,65.9221551 40.7274316,66.492529 C40.7274316,67.0629028 40.2679579,67.5252393 39.7011158,67.5252393 C39.1342737,67.5252393 38.6748,67.0629028 38.6748,66.492529" id="Fill-155" fill="#FEFEFE"></path>
                    <path d="M39.7009579,65.6186972 C39.2219053,65.6186972 38.8325368,66.0104916 38.8325368,66.492529 C38.8325368,66.9745664 39.2219053,67.3663607 39.7009579,67.3663607 C40.1800105,67.3663607 40.5693789,66.9745664 40.5693789,66.492529 C40.5693789,66.0104916 40.1800105,65.6186972 39.7009579,65.6186972 M39.7009579,67.6841178 C39.0482211,67.6841178 38.5167474,67.1493327 38.5167474,66.492529 C38.5167474,65.8357252 39.0482211,65.3009402 39.7009579,65.3009402 C40.3536947,65.3009402 40.8851684,65.8357252 40.8851684,66.492529 C40.8851684,67.1493327 40.3536947,67.6841178 39.7009579,67.6841178" id="Fill-157" fill="#231F20"></path>
                    <path d="M42.5816526,66.492529 C42.5816526,65.9221551 43.0411263,65.4598187 43.6079684,65.4598187 C44.1748105,65.4598187 44.6342842,65.9221551 44.6342842,66.492529 C44.6342842,67.0629028 44.1748105,67.5252393 43.6079684,67.5252393 C43.0411263,67.5252393 42.5816526,67.0629028 42.5816526,66.492529" id="Fill-159" fill="#FEFEFE"></path>
                    <path d="M43.6079368,65.6186972 C43.1288842,65.6186972 42.7395158,66.0104916 42.7395158,66.492529 C42.7395158,66.9745664 43.1288842,67.3663607 43.6079368,67.3663607 C44.0869895,67.3663607 44.4763579,66.9745664 44.4763579,66.492529 C44.4763579,66.0104916 44.0869895,65.6186972 43.6079368,65.6186972 M43.6079368,67.6841178 C42.9552,67.6841178 42.4237263,67.1493327 42.4237263,66.492529 C42.4237263,65.8357252 42.9552,65.3009402 43.6079368,65.3009402 C44.2606737,65.3009402 44.7921474,65.8357252 44.7921474,66.492529 C44.7921474,67.1493327 44.2606737,67.6841178 43.6079368,67.6841178" id="Fill-161" fill="#231F20"></path>
                    <path d="M3.51293684,1.2729028 C3.51293684,0.702528972 3.97241053,0.240192523 4.53925263,0.240192523 C5.10609474,0.240192523 5.56556842,0.702528972 5.56556842,1.2729028 C5.56556842,1.84327664 5.10609474,2.30561308 4.53925263,2.30561308 C3.97241053,2.30561308 3.51293684,1.84327664 3.51293684,1.2729028" id="Fill-163" fill="#FEFEFE"></path>
                    <path d="M4.53931579,0.399071028 C4.06026316,0.399071028 3.67089474,0.790865421 3.67089474,1.2729028 C3.67089474,1.75494019 4.06026316,2.14673458 4.53931579,2.14673458 C5.01836842,2.14673458 5.40773684,1.75494019 5.40773684,1.2729028 C5.40773684,0.790865421 5.01836842,0.399071028 4.53931579,0.399071028 M4.53931579,2.46449159 C3.88626316,2.46449159 3.35510526,1.9300243 3.35510526,1.2729028 C3.35510526,0.615781308 3.88626316,0.0813140187 4.53931579,0.0813140187 C5.19236842,0.0813140187 5.72352632,0.615781308 5.72352632,1.2729028 C5.72352632,1.9300243 5.19236842,2.46449159 4.53931579,2.46449159" id="Fill-165" fill="#231F20"></path>
                    <path d="M7.41982105,1.2729028 C7.41982105,0.702528972 7.87929474,0.240192523 8.44613684,0.240192523 C9.01297895,0.240192523 9.47245263,0.702528972 9.47245263,1.2729028 C9.47245263,1.84327664 9.01297895,2.30561308 8.44613684,2.30561308 C7.87929474,2.30561308 7.41982105,1.84327664 7.41982105,1.2729028" id="Fill-167" fill="#FEFEFE"></path>
                    <path d="M8.44613684,0.399071028 C7.96708421,0.399071028 7.57771579,0.790865421 7.57771579,1.2729028 C7.57771579,1.75494019 7.96708421,2.14673458 8.44613684,2.14673458 C8.92518947,2.14673458 9.31455789,1.75494019 9.31455789,1.2729028 C9.31455789,0.790865421 8.92518947,0.399071028 8.44613684,0.399071028 M8.44613684,2.46449159 C7.79308421,2.46449159 7.26192632,1.9300243 7.26192632,1.2729028 C7.26192632,0.615781308 7.79308421,0.0813140187 8.44613684,0.0813140187 C9.09918947,0.0813140187 9.63034737,0.615781308 9.63034737,1.2729028 C9.63034737,1.9300243 9.09918947,2.46449159 8.44613684,2.46449159" id="Fill-169" fill="#231F20"></path>
                    <path d="M11.3267053,1.2729028 C11.3267053,0.702528972 11.7861789,0.240192523 12.3530211,0.240192523 C12.9198632,0.240192523 13.3793368,0.702528972 13.3793368,1.2729028 C13.3793368,1.84327664 12.9198632,2.30561308 12.3530211,2.30561308 C11.7861789,2.30561308 11.3267053,1.84327664 11.3267053,1.2729028" id="Fill-171" fill="#FEFEFE"></path>
                    <path d="M12.3529579,0.399071028 C11.8739053,0.399071028 11.4845368,0.790865421 11.4845368,1.2729028 C11.4845368,1.75494019 11.8739053,2.14673458 12.3529579,2.14673458 C12.8320105,2.14673458 13.2213789,1.75494019 13.2213789,1.2729028 C13.2213789,0.790865421 12.8320105,0.399071028 12.3529579,0.399071028 M12.3529579,2.46449159 C11.6999053,2.46449159 11.1687474,1.9300243 11.1687474,1.2729028 C11.1687474,0.615781308 11.6999053,0.0813140187 12.3529579,0.0813140187 C13.0060105,0.0813140187 13.5371684,0.615781308 13.5371684,1.2729028 C13.5371684,1.9300243 13.0060105,2.46449159 12.3529579,2.46449159" id="Fill-173" fill="#231F20"></path>
                    <path d="M15.2335579,1.2729028 C15.2335579,0.702528972 15.6930316,0.240192523 16.2598737,0.240192523 C16.8267158,0.240192523 17.2861895,0.702528972 17.2861895,1.2729028 C17.2861895,1.84327664 16.8267158,2.30561308 16.2598737,2.30561308 C15.6930316,2.30561308 15.2335579,1.84327664 15.2335579,1.2729028" id="Fill-175" fill="#FEFEFE"></path>
                    <path d="M16.2599053,0.399071028 C15.7808526,0.399071028 15.3914842,0.790865421 15.3914842,1.2729028 C15.3914842,1.75494019 15.7808526,2.14673458 16.2599053,2.14673458 C16.7389579,2.14673458 17.1283263,1.75494019 17.1283263,1.2729028 C17.1283263,0.790865421 16.7389579,0.399071028 16.2599053,0.399071028 M16.2599053,2.46449159 C15.6068526,2.46449159 15.0756947,1.9300243 15.0756947,1.2729028 C15.0756947,0.615781308 15.6068526,0.0813140187 16.2599053,0.0813140187 C16.9129579,0.0813140187 17.4441158,0.615781308 17.4441158,1.2729028 C17.4441158,1.9300243 16.9129579,2.46449159 16.2599053,2.46449159" id="Fill-177" fill="#231F20"></path>
                    <path d="M19.1404421,1.2729028 C19.1404421,0.702528972 19.5999158,0.240192523 20.1667579,0.240192523 C20.7336,0.240192523 21.1930737,0.702528972 21.1930737,1.2729028 C21.1930737,1.84327664 20.7336,2.30561308 20.1667579,2.30561308 C19.5999158,2.30561308 19.1404421,1.84327664 19.1404421,1.2729028" id="Fill-179" fill="#FEFEFE"></path>
                    <path d="M20.1667263,0.399071028 C19.6876737,0.399071028 19.2983053,0.790865421 19.2983053,1.2729028 C19.2983053,1.75494019 19.6876737,2.14673458 20.1667263,2.14673458 C20.6457789,2.14673458 21.0351474,1.75494019 21.0351474,1.2729028 C21.0351474,0.790865421 20.6457789,0.399071028 20.1667263,0.399071028 M20.1667263,2.46449159 C19.5136737,2.46449159 18.9825158,1.9300243 18.9825158,1.2729028 C18.9825158,0.615781308 19.5136737,0.0813140187 20.1667263,0.0813140187 C20.8197789,0.0813140187 21.3509368,0.615781308 21.3509368,1.2729028 C21.3509368,1.9300243 20.8197789,2.46449159 20.1667263,2.46449159" id="Fill-181" fill="#231F20"></path>
                    <path d="M23.0472947,1.2729028 C23.0472947,0.702528972 23.5067684,0.240192523 24.0736105,0.240192523 C24.6404526,0.240192523 25.0999263,0.702528972 25.0999263,1.2729028 C25.0999263,1.84327664 24.6404526,2.30561308 24.0736105,2.30561308 C23.5067684,2.30561308 23.0472947,1.84327664 23.0472947,1.2729028" id="Fill-183" fill="#FEFEFE"></path>
                    <path d="M24.0735474,0.399071028 C23.5948105,0.399071028 23.2051263,0.790865421 23.2051263,1.2729028 C23.2051263,1.75494019 23.5948105,2.14673458 24.0735474,2.14673458 C24.5526,2.14673458 24.9419684,1.75494019 24.9419684,1.2729028 C24.9419684,0.790865421 24.5526,0.399071028 24.0735474,0.399071028 M24.0735474,2.46449159 C23.4204947,2.46449159 22.8893368,1.9300243 22.8893368,1.2729028 C22.8893368,0.615781308 23.4204947,0.0813140187 24.0735474,0.0813140187 C24.7266,0.0813140187 25.2577579,0.615781308 25.2577579,1.2729028 C25.2577579,1.9300243 24.7266,2.46449159 24.0735474,2.46449159" id="Fill-185" fill="#231F20"></path>
                    <path d="M26.9541789,1.2729028 C26.9541789,0.702528972 27.4136526,0.240192523 27.9804947,0.240192523 C28.5473368,0.240192523 29.0068105,0.702528972 29.0068105,1.2729028 C29.0068105,1.84327664 28.5473368,2.30561308 27.9804947,2.30561308 C27.4136526,2.30561308 26.9541789,1.84327664 26.9541789,1.2729028" id="Fill-187" fill="#FEFEFE"></path>
                    <path d="M27.9803684,0.399071028 C27.5013158,0.399071028 27.1119474,0.790865421 27.1119474,1.2729028 C27.1119474,1.75494019 27.5013158,2.14673458 27.9803684,2.14673458 C28.4594211,2.14673458 28.8487895,1.75494019 28.8487895,1.2729028 C28.8487895,0.790865421 28.4594211,0.399071028 27.9803684,0.399071028 M27.9803684,2.46449159 C27.3276316,2.46449159 26.7961579,1.9300243 26.7961579,1.2729028 C26.7961579,0.615781308 27.3276316,0.0813140187 27.9803684,0.0813140187 C28.6331053,0.0813140187 29.1645789,0.615781308 29.1645789,1.2729028 C29.1645789,1.9300243 28.6331053,2.46449159 27.9803684,2.46449159" id="Fill-189" fill="#231F20"></path>
                    <path d="M30.8610316,1.2729028 C30.8610316,0.702528972 31.3205053,0.240192523 31.8873474,0.240192523 C32.4541895,0.240192523 32.9136632,0.702528972 32.9136632,1.2729028 C32.9136632,1.84327664 32.4541895,2.30561308 31.8873474,2.30561308 C31.3205053,2.30561308 30.8610316,1.84327664 30.8610316,1.2729028" id="Fill-191" fill="#FEFEFE"></path>
                    <path d="M31.8873474,0.399071028 C31.4082947,0.399071028 31.0189263,0.790865421 31.0189263,1.2729028 C31.0189263,1.75494019 31.4082947,2.14673458 31.8873474,2.14673458 C32.3664,2.14673458 32.7557684,1.75494019 32.7557684,1.2729028 C32.7557684,0.790865421 32.3664,0.399071028 31.8873474,0.399071028 M31.8873474,2.46449159 C31.2346105,2.46449159 30.7031368,1.9300243 30.7031368,1.2729028 C30.7031368,0.615781308 31.2346105,0.0813140187 31.8873474,0.0813140187 C32.5400842,0.0813140187 33.0715579,0.615781308 33.0715579,1.2729028 C33.0715579,1.9300243 32.5400842,2.46449159 31.8873474,2.46449159" id="Fill-193" fill="#231F20"></path>
                    <path d="M34.7679158,1.2729028 C34.7679158,0.702528972 35.2273895,0.240192523 35.7942316,0.240192523 C36.3610737,0.240192523 36.8205474,0.702528972 36.8205474,1.2729028 C36.8205474,1.84327664 36.3610737,2.30561308 35.7942316,2.30561308 C35.2273895,2.30561308 34.7679158,1.84327664 34.7679158,1.2729028" id="Fill-195" fill="#FEFEFE"></path>
                    <path d="M35.7942947,0.399071028 C35.3152421,0.399071028 34.9258737,0.790865421 34.9258737,1.2729028 C34.9258737,1.75494019 35.3152421,2.14673458 35.7942947,2.14673458 C36.2733474,2.14673458 36.6627158,1.75494019 36.6627158,1.2729028 C36.6627158,0.790865421 36.2733474,0.399071028 35.7942947,0.399071028 M35.7942947,2.46449159 C35.1415579,2.46449159 34.6100842,1.9300243 34.6100842,1.2729028 C34.6100842,0.615781308 35.1415579,0.0813140187 35.7942947,0.0813140187 C36.4470316,0.0813140187 36.9785053,0.615781308 36.9785053,1.2729028 C36.9785053,1.9300243 36.4470316,2.46449159 35.7942947,2.46449159" id="Fill-197" fill="#231F20"></path>
                    <path d="M38.6748,1.2729028 C38.6748,0.702528972 39.1342737,0.240192523 39.7011158,0.240192523 C40.2679579,0.240192523 40.7274316,0.702528972 40.7274316,1.2729028 C40.7274316,1.84327664 40.2679579,2.30561308 39.7011158,2.30561308 C39.1342737,2.30561308 38.6748,1.84327664 38.6748,1.2729028" id="Fill-199" fill="#FEFEFE"></path>
                    <path d="M39.7009579,0.399071028 C39.2219053,0.399071028 38.8325368,0.790865421 38.8325368,1.2729028 C38.8325368,1.75494019 39.2219053,2.14673458 39.7009579,2.14673458 C40.1800105,2.14673458 40.5693789,1.75494019 40.5693789,1.2729028 C40.5693789,0.790865421 40.1800105,0.399071028 39.7009579,0.399071028 M39.7009579,2.46449159 C39.0482211,2.46449159 38.5167474,1.9300243 38.5167474,1.2729028 C38.5167474,0.615781308 39.0482211,0.0813140187 39.7009579,0.0813140187 C40.3536947,0.0813140187 40.8851684,0.615781308 40.8851684,1.2729028 C40.8851684,1.9300243 40.3536947,2.46449159 39.7009579,2.46449159" id="Fill-201" fill="#231F20"></path>
                    <path d="M42.5816526,1.2729028 C42.5816526,0.702528972 43.0411263,0.240192523 43.6079684,0.240192523 C44.1748105,0.240192523 44.6342842,0.702528972 44.6342842,1.2729028 C44.6342842,1.84327664 44.1748105,2.30561308 43.6079684,2.30561308 C43.0411263,2.30561308 42.5816526,1.84327664 42.5816526,1.2729028" id="Fill-203" fill="#FEFEFE"></path>
                    <path d="M43.6079368,0.399071028 C43.1288842,0.399071028 42.7395158,0.790865421 42.7395158,1.2729028 C42.7395158,1.75494019 43.1288842,2.14673458 43.6079368,2.14673458 C44.0869895,2.14673458 44.4763579,1.75494019 44.4763579,1.2729028 C44.4763579,0.790865421 44.0869895,0.399071028 43.6079368,0.399071028 M43.6079368,2.46449159 C42.9552,2.46449159 42.4237263,1.9300243 42.4237263,1.2729028 C42.4237263,0.615781308 42.9552,0.0813140187 43.6079368,0.0813140187 C44.2606737,0.0813140187 44.7921474,0.615781308 44.7921474,1.2729028 C44.7921474,1.9300243 44.2606737,2.46449159 43.6079368,2.46449159" id="Fill-205" fill="#231F20"></path>
                </g>
            </g>
        </g>
    </g>
</svg>