<?xml version="1.0" encoding="UTF-8"?>
<svg width="34px" height="67px" viewBox="0 0 34 67" version="1.1" xmlns="http://www.w3.org/2000/svg" xmlns:xlink="http://www.w3.org/1999/xlink">
    <!-- Generator: Sketch 50.2 (55047) - http://www.bohemiancoding.com/sketch -->
    <title>Open Air</title>
    <desc>Created with Sketch.</desc>
    <defs>
        <polygon id="path-1" points="0 0.134030734 33.9600734 0.134030734 33.9600734 17.3253702 0 17.3253702"></polygon>
        <polygon id="path-3" points="0 67 33.9600734 67 33.9600734 0.155206422 0 0.155206422"></polygon>
    </defs>
    <g id="Servicios" stroke="none" stroke-width="1" fill="none" fill-rule="evenodd">
        <g id="Desktop-Copy-2" transform="translate(-581.000000, -782.000000)">
            <g id="Open-Air" transform="translate(581.000000, 782.000000)">
                <polygon id="Fill-1" fill="#FEFEFE" points="13 65 20 65 20 33 13 33"></polygon>
                <path d="M13.5957447,64.3831776 L19.4042553,64.3831776 L19.4042553,32.6168224 L13.5957447,32.6168224 L13.5957447,64.3831776 Z M13,65 L20,65 L20,32 L13,32 L13,65 Z" id="Fill-2" fill="#231F20"></path>
                <g id="Group-21">
                    <path d="M32.1467505,15.4062197 C32.1467505,23.659206 25.3564202,30.3496784 16.980255,30.3496784 C8.60377798,30.3496784 1.81344771,23.659206 1.81344771,15.4062197 C1.81344771,7.15323349 8.60377798,0.462761009 16.980255,0.462761009 C25.3564202,0.462761009 32.1467505,7.15323349 32.1467505,15.4062197" id="Fill-3" fill="#FEFEFE"></path>
                    <path d="M16.9801927,0.770008257 C8.78931193,0.770008257 2.12562385,7.33570092 2.12562385,15.4064349 C2.12562385,23.4765541 8.78931193,30.0425541 16.9801927,30.0425541 C25.1710734,30.0425541 31.8347615,23.4765541 31.8347615,15.4064349 C31.8347615,7.33570092 25.1710734,0.770008257 16.9801927,0.770008257 M16.9801927,30.657233 C8.44556881,30.657233 1.50177064,23.8155495 1.50177064,15.4064349 C1.50177064,6.99701284 8.44556881,0.155329358 16.9801927,0.155329358 C25.5148165,0.155329358 32.4586147,6.99701284 32.4586147,15.4064349 C32.4586147,23.8155495 25.5148165,30.657233 16.9801927,30.657233" id="Fill-5" fill="#231F20"></path>
                    <g id="Group-9" transform="translate(0.000000, 15.674312)">
                        <mask id="mask-2" fill="white">
                            <use xlink:href="#path-1"></use>
                        </mask>
                        <g id="Clip-8"></g>
                        <path d="M16.9801927,17.3253702 C7.61709174,17.3253702 -0.000155963303,9.82014083 -0.000155963303,0.595039908 L-0.000155963303,0.134030734 L1.81369725,0.134030734 L1.81369725,1.05604908 L0.942486239,1.05604908 C1.19109174,9.56013165 8.28991743,16.4033518 16.9801927,16.4033518 C25.670156,16.4033518 32.7689817,9.56013165 33.0175872,1.05604908 L32.1207982,1.05604908 L32.1207982,0.134030734 L33.9602294,0.134030734 L33.9602294,0.595039908 C33.9602294,9.82014083 26.3429817,17.3253702 16.9801927,17.3253702" id="Fill-7" fill="#231F20" mask="url(#mask-2)"></path>
                    </g>
                    <path d="M27.0913248,15.4062197 C27.0913248,20.9082106 22.5643339,25.368628 16.9802239,25.368628 C11.3958018,25.368628 6.86912294,20.9082106 6.86912294,15.4062197 C6.86912294,9.9042289 11.3958018,5.44381147 16.9802239,5.44381147 C22.5643339,5.44381147 27.0913248,9.9042289 27.0913248,15.4062197" id="Fill-10" fill="#FEFEFE"></path>
                    <path d="M16.9801927,5.75105872 C11.577,5.75105872 7.18101835,10.0823936 7.18101835,15.4064349 C7.18101835,20.7301688 11.577,25.0615037 16.9801927,25.0615037 C22.3833853,25.0615037 26.779367,20.7301688 26.779367,15.4064349 C26.779367,10.0823936 22.3833853,5.75105872 16.9801927,5.75105872 M16.9801927,25.6761826 C11.232945,25.6761826 6.55716514,21.0691642 6.55716514,15.4064349 C6.55716514,9.74339817 11.232945,5.13637982 16.9801927,5.13637982 C22.7274404,5.13637982 27.4032202,9.74339817 27.4032202,15.4064349 C27.4032202,21.0691642 22.7274404,25.6761826 16.9801927,25.6761826" id="Fill-12" fill="#231F20"></path>
                    <mask id="mask-4" fill="white">
                        <use xlink:href="#path-3"></use>
                    </mask>
                    <g id="Clip-15"></g>
                    <polygon id="Fill-14" fill="#FEFEFE" mask="url(#mask-4)" points="7.33744954 66.6926606 25.4825321 66.6926606 25.4825321 64.6949541 7.33744954 64.6949541"></polygon>
                    <path d="M7.64937615,66.3853211 L25.1702936,66.3853211 L25.1702936,65.0022936 L7.64937615,65.0022936 L7.64937615,66.3853211 Z M7.02552294,67 L25.7941468,67 L25.7941468,64.3876147 L7.02552294,64.3876147 L7.02552294,67 Z" id="Fill-16" fill="#231F20" mask="url(#mask-4)"></path>
                    <polygon id="Fill-17" fill="#FEFEFE" mask="url(#mask-4)" points="10.7673945 19.2658807 23.1929908 19.2658807 23.1929908 11.5252294 10.7673945 11.5252294"></polygon>
                    <path d="M11.0793211,18.9585413 L22.8813761,18.9585413 L22.8813761,11.8325688 L11.0793211,11.8325688 L11.0793211,18.9585413 Z M10.455156,19.5732202 L23.5049174,19.5732202 L23.5049174,11.2178899 L10.455156,11.2178899 L10.455156,19.5732202 Z" id="Fill-18" fill="#231F20" mask="url(#mask-4)"></path>
                    <path d="M15.4205284,9.06651376 C15.4205284,8.21794954 16.1189321,7.52981651 16.9801615,7.52981651 C17.8413908,7.52981651 18.5397945,8.21794954 18.5397945,9.06651376 C18.5397945,9.91507798 17.8413908,10.603211 16.9801615,10.603211 C16.1189321,10.603211 15.4205284,9.91507798 15.4205284,9.06651376" id="Fill-19" fill="#FEFEFE" mask="url(#mask-4)"></path>
                    <path d="M16.9801927,7.83715596 C16.2920826,7.83715596 15.7324862,8.38852294 15.7324862,9.06651376 C15.7324862,9.74450459 16.2920826,10.2958716 16.9801927,10.2958716 C17.6683028,10.2958716 18.2278991,9.74450459 18.2278991,9.06651376 C18.2278991,8.38852294 17.6683028,7.83715596 16.9801927,7.83715596 M16.9801927,10.9105505 C15.9480275,10.9105505 15.108633,10.0835 15.108633,9.06651376 C15.108633,8.04952752 15.9480275,7.22247706 16.9801927,7.22247706 C18.0123578,7.22247706 18.8517523,8.04952752 18.8517523,9.06651376 C18.8517523,10.0835 18.0123578,10.9105505 16.9801927,10.9105505" id="Fill-20" fill="#231F20" mask="url(#mask-4)"></path>
                </g>
            </g>
        </g>
    </g>
</svg>