<?xml version="1.0" encoding="UTF-8"?>
<svg width="35px" height="35px" viewBox="0 0 35 35" version="1.1" xmlns="http://www.w3.org/2000/svg" xmlns:xlink="http://www.w3.org/1999/xlink">
    <!-- Generator: Sketch 50.2 (55047) - http://www.bohemiancoding.com/sketch -->
    <title>Group 4</title>
    <desc>Created with Sketch.</desc>
    <defs></defs>
    <g id="Contacto" stroke="none" stroke-width="1" fill="none" fill-rule="evenodd">
        <g id="Desktop-Copy" transform="translate(-723.000000, -1353.000000)">
            <g id="Footer" transform="translate(1.000000, 1228.000000)">
                <g id="Group-4" transform="translate(723.000000, 126.000000)">
                    <circle id="Oval-Copy" stroke="#FFFFFF" cx="16.5" cy="16.5" r="16.5"></circle>
                    <path d="M25.3726019,11.553744 C24.7773994,11.811514 24.1297362,11.9889737 23.4461277,12.0777035 C24.1472231,11.6606084 24.6796023,11.021041 24.9289526,10.2396354 C24.2806417,10.6214328 23.5526683,10.8966897 22.7890734,11.0475952 C22.1844798,10.3996082 21.3062485,10 20.3295724,10 C18.4827608,10 16.9730578,11.4828249 16.9730578,13.3027585 C16.9730578,13.5692719 17.0177466,13.8179746 17.070855,14.0579338 C14.2742453,13.9245152 11.7966097,12.6104065 10.1450685,10.6036221 C9.86106823,11.1010274 9.68360851,11.6606084 9.68360851,12.2642306 C9.68360851,13.4183664 10.2872306,14.430664 11.174853,15.0167992 C10.6246631,15.0077319 10.1094471,14.8568263 9.65705432,14.6081237 C9.65705432,14.6259344 9.65705432,14.6350017 9.65705432,14.6524886 C9.65705432,15.078651 9.73704072,15.4695157 9.88762242,15.8422459 C10.2962979,16.8814215 11.2286091,17.6625033 12.3565145,17.8846518 C12.0627993,17.9646382 11.778799,18.0086793 11.4682445,18.0086793 C11.2551633,18.0086793 11.0420821,17.9821251 10.8374205,17.9377602 C11.272974,19.2518688 12.5067724,20.2107342 13.9724342,20.2463557 C12.8176507,21.1343019 11.3795146,21.6582615 9.80795984,21.6582615 C9.53237915,21.6582615 9.27525686,21.6401269 9,21.6135727 C10.4915684,22.5462077 12.2583936,23.0963976 14.1498939,23.0963976 C19.3972612,23.0963976 22.6381679,19.46495 23.4811015,15.6913404 C23.6326547,15.0167992 23.70325,14.3506776 23.70325,13.6936232 C23.70325,13.5514612 23.70325,13.4008795 23.70325,13.2674608 C24.3515609,12.7969335 24.9289526,12.2107983 25.3726019,11.553744" id="Fill-50" fill="#FFFFFF"></path>
                </g>
            </g>
        </g>
    </g>
</svg>