<?xml version="1.0" encoding="UTF-8"?>
<svg width="35px" height="35px" viewBox="0 0 35 35" version="1.1" xmlns="http://www.w3.org/2000/svg" xmlns:xlink="http://www.w3.org/1999/xlink">
    <!-- Generator: Sketch 50.2 (55047) - http://www.bohemiancoding.com/sketch -->
    <title>Group 2</title>
    <desc>Created with Sketch.</desc>
    <defs></defs>
    <g id="Contacto" stroke="none" stroke-width="1" fill="none" fill-rule="evenodd">
        <g id="Desktop-Copy" transform="translate(-735.000000, -879.000000)">
            <g id="Content" transform="translate(178.000000, 655.000000)">
                <g id="Group-2" transform="translate(558.000000, 225.000000)">
                    <circle id="Oval-Copy" stroke="#454857" stroke-width="2" cx="16.5" cy="16.5" r="16.5"></circle>
                    <path d="M27.0561274,11.903307 C26.3270157,12.2190703 25.5336405,12.4364551 24.696233,12.5451475 C25.5550616,12.0342139 26.207216,11.2507559 26.5126654,10.2935488 C25.7184969,10.7612435 24.8267432,11.0984279 23.8913539,11.2832843 C23.1507382,10.4895125 22.0749215,10 20.8785117,10 C18.6162024,10 16.7668449,11.8164324 16.7668449,14.0458166 C16.7668449,14.3722905 16.8215878,14.6769466 16.8866446,14.9708921 C13.4608506,14.8074568 10.425794,13.1976986 8.40268729,10.7394257 C8.05479228,11.3487378 7.83740748,12.0342139 7.83740748,12.7736396 C7.83740748,14.1874341 8.57683314,15.4274795 9.6641538,16.145484 C8.9901816,16.1343768 8.35905165,15.9495203 7.8048791,15.6448643 C7.8048791,15.6666821 7.8048791,15.6777894 7.8048791,15.6992105 C7.8048791,16.2212513 7.90286094,16.7000532 8.08732066,17.1566407 C8.58794039,18.4296111 9.73000393,19.3864215 11.1116668,19.6585492 C10.7518711,19.7565311 10.4039761,19.8104806 10.0235527,19.8104806 C9.76253232,19.8104806 9.50151189,19.7779522 9.25080534,19.723606 C9.78435013,21.3333642 11.2957298,22.5079561 13.0911378,22.5515918 C11.6765499,23.6393091 9.91486035,24.2811496 7.98973552,24.2811496 C7.65215438,24.2811496 7.33718444,24.2589351 7,24.2264067 C8.827143,25.368867 10.9914704,26.0428392 13.3085226,26.0428392 C19.7364482,26.0428392 23.7064975,21.5943846 24.7390753,16.9717842 C24.9247251,16.145484 25.0112029,15.3294977 25.0112029,14.5246186 C25.0112029,14.3504727 25.0112029,14.166013 25.0112029,14.0025777 C25.8053715,13.4261906 26.5126654,12.7081861 27.0561274,11.903307" id="Fill-50" fill="#414241"></path>
                </g>
            </g>
        </g>
    </g>
</svg>