<?xml version="1.0" encoding="UTF-8"?>
<svg width="47px" height="66px" viewBox="0 0 47 66" version="1.1" xmlns="http://www.w3.org/2000/svg" xmlns:xlink="http://www.w3.org/1999/xlink">
    <!-- Generator: Sketch 50.2 (55047) - http://www.bohemiancoding.com/sketch -->
    <title>Vintage</title>
    <desc>Created with Sketch.</desc>
    <defs>
        <polygon id="path-1" points="0 0.00328506787 46.9976203 0.00328506787 46.9976203 65.9999403 0 65.9999403"></polygon>
        <polygon id="path-3" points="0 66 47 66 47 0 0 0"></polygon>
    </defs>
    <g id="Servicios" stroke="none" stroke-width="1" fill="none" fill-rule="evenodd">
        <g id="Desktop-Copy-2" transform="translate(-740.000000, -782.000000)">
            <g id="Vintage" transform="translate(740.000000, 782.000000)">
                <path d="M44.5255654,66 L1.47443459,66 C0.663495564,66 0,65.3321582 0,64.5159072 L0,2.48409281 C0,1.66784176 0.663495564,1 1.47443459,1 L44.5255654,1 C45.3365044,1 46,1.66784176 46,2.48409281 L46,64.5159072 C46,65.3321582 45.3365044,66 44.5255654,66" id="Fill-1" fill="#FEFEFE"></path>
                <g id="Group-5">
                    <mask id="mask-2" fill="white">
                        <use xlink:href="#path-1"></use>
                    </mask>
                    <g id="Clip-4"></g>
                    <path d="M1.78481013,0.600510407 C1.12859494,0.600510407 0.594936709,1.13627511 0.594936709,1.79508054 L0.594936709,64.2080851 C0.594936709,64.8668905 1.12859494,65.4026552 1.78481013,65.4026552 L45.2128101,65.4026552 C45.8690253,65.4026552 46.4026835,64.8668905 46.4026835,64.2080851 L46.4026835,1.79508054 C46.4026835,1.13627511 45.8690253,0.600510407 45.2128101,0.600510407 L1.78481013,0.600510407 Z M45.2128101,65.9999403 L1.78481013,65.9999403 C0.800487342,65.9999403 0,65.1959946 0,64.2080851 L0,1.79508054 C0,0.806872398 0.800487342,0.00322533937 1.78481013,0.00322533937 L45.2128101,0.00322533937 C46.1971329,0.00322533937 46.9976203,0.806872398 46.9976203,1.79508054 L46.9976203,64.2080851 C46.9976203,65.1959946 46.1971329,65.9999403 45.2128101,65.9999403 Z" id="Fill-3" fill="#231F20" mask="url(#mask-2)"></path>
                </g>
                <mask id="mask-4" fill="white">
                    <use xlink:href="#path-3"></use>
                </mask>
                <g id="Clip-7"></g>
                <polygon id="Fill-6" fill="#FEFEFE" mask="url(#mask-4)" points="25 65 42 65 42 15 25 15"></polygon>
                <path d="M25.608414,65.4083561 L41.391586,65.4083561 L41.391586,15.5916439 L25.608414,15.5916439 L25.608414,65.4083561 Z M25,66 L42,66 L42,15 L25,15 L25,66 Z" id="Fill-8" fill="#231F20" mask="url(#mask-4)"></path>
                <path d="M9.66375297,21.2171927 C9.48191225,20.8167342 7.75949137,20.3349457 5.85896257,21.2183184 C6.06080043,21.2346407 6.41968256,21.4955156 6.29756665,21.7102379 C5.881626,22.4438959 5.51127885,23.2467829 5.20358942,24.0263121 C8.85026905,22.9743698 9.82746295,21.5785341 9.66375297,21.2171927 M9.95517805,21.9426896 C9.66615263,22.7303799 7.67470347,24.0035172 4.94202674,24.7261999 C4.38690596,26.2982036 4.1301426,27.6470425 4.33971269,27.9371849 C4.46689454,28.1130715 3.73259932,27.9034147 3.50889791,27.5097102 C3.20707431,26.9792364 4.24079347,23.930067 5.73391374,21.2785419 C4.92682891,21.6781562 4.09308122,22.3273887 3.33665582,23.3368368 C3.13908402,23.5996817 2.92791415,22.7942619 3.02390045,22.6172497 C4.52955227,19.8438705 8.83533785,19.8585042 9.24514604,20.0988356 C9.88398821,20.473685 10.1044901,21.5351956 9.95517805,21.9426896" id="Fill-9" fill="#231F20" mask="url(#mask-4)"></path>
                <path d="M12.9999903,25.5725436 C12.9999903,25.5725436 12.1110499,27.0002824 11.5855149,27 C11.2028628,26.9997176 10.694291,26.7008951 10.4225526,26.2456003 C10.2160574,25.8998926 11.3982666,23.8140665 11.3982666,23.8140665 C10.8456556,24.0823853 9.25861157,26.3492561 9.00807719,26.8508712 C9.00970827,26.8545429 9.01068692,26.8582147 9.01199179,26.861604 C8.69686651,26.8986037 8.29562003,26.6506206 8.02322913,26.2537911 C7.75116445,25.8566792 9.9508433,21.5469132 10.3442606,21.0314585 C10.4460402,20.8981464 11.32813,21.2133505 11.0991259,21.5110432 C10.9314505,21.7285227 9.7234703,24.0902937 9.20967908,25.6341157 C10.6698248,23.4093286 12.1234462,22.5701967 12.2464298,22.5306549 C12.3749592,22.4891361 13.1409159,22.8633703 12.9771551,23.0302929 C12.7670716,23.244948 11.10826,26.5139192 11.3235629,26.5139192 C11.5388659,26.5139192 12.9670424,25.1175313 12.9670424,25.1175313 L12.9999903,25.5725436 Z" id="Fill-10" fill="#231F20" mask="url(#mask-4)"></path>
                <path d="M15.4443158,24.3279989 C15.4773647,24.3568228 15.58773,24.3155185 15.7444851,24.2299384 C16.2253625,23.3277814 16.5297766,22.5150676 16.2347617,22.4978327 C16.0091799,22.484758 15.2666398,24.1746679 15.4443158,24.3279989 M15.4994984,24.6712108 C15.2026643,24.5695844 14.9576776,24.3681146 14.7490751,24.0676928 C14.6805516,23.9690379 14.6723651,23.8180841 14.7035949,23.6418723 C14.0244238,24.8845668 13.622682,26.6205354 13.9164842,26.6555995 C14.1823917,26.6873949 14.908559,25.6946062 15.4994984,24.6712108 M17.9678607,22.6588897 L18,23.0187422 C18,23.0187422 16.5206806,24.7490649 15.9894718,24.7490649 C15.9755246,24.7490649 15.9621837,24.7481735 15.9482364,24.7478763 C15.306056,25.8910245 14.4813483,27 14.2048286,27 C13.6736199,27 13.2157858,26.6095408 13.0284074,26.2574143 C12.8407257,25.9052878 13.6154052,23.61602 14.3982711,22.6663185 C14.459821,22.5917331 14.8188114,22.7064342 14.997397,22.8478791 C15.2178244,22.4164127 15.4907056,22.0417026 15.5901556,22.0155532 C15.7966358,21.9620656 16.3693831,22.040514 16.6898669,22.345096 C16.8875542,22.5323025 16.7401984,23.1052137 16.4360874,23.7880717 C17.1440626,23.2986604 17.9678607,22.6588897 17.9678607,22.6588897" id="Fill-11" fill="#231F20" mask="url(#mask-4)"></path>
                <path d="M19.8756981,22.0905401 C19.4499671,22.0799068 19.0625827,22.0761707 18.7099062,22.0776077 C18.0381413,23.6818013 16.3931571,28.170497 16.9003395,28.4848983 C17.1659666,28.6498584 18.5394458,26.4683045 18.5394458,26.4683045 L18.5394458,27.014627 C18.5394458,27.014627 17.8287746,28.7857924 17.2658916,28.9909866 C17.0755582,29.0602468 16.150482,28.7263033 15.9940168,28.1288259 C15.8269152,27.4919766 16.9742337,24.0577033 17.798825,22.0934139 C16.0595138,22.1503165 15.4887936,22.3316577 15.4291745,22.2589488 C15.2727092,22.0675491 14.8844851,22.0445582 15.033393,21.9525944 C15.1279999,21.8942548 16.6780973,21.6761282 18.0359021,21.5505401 C18.1363869,21.3304018 18.2281948,21.1450372 18.3071271,21.0053672 C18.3297992,20.9648456 19.0637023,21.1568201 18.9808513,21.4781186 C19.3637573,21.4565646 19.6820059,21.4519664 19.8756981,21.4735204 C19.9856996,21.4855907 20.0892634,22.095713 19.8756981,22.0905401" id="Fill-12" fill="#231F20" mask="url(#mask-4)"></path>
                <path d="M20.4443158,24.3279989 C20.4773647,24.3568228 20.58773,24.3155185 20.7444851,24.2299384 C21.2253625,23.3277814 21.5297766,22.5150676 21.2347617,22.4978327 C21.0091799,22.484758 20.2666398,24.1746679 20.4443158,24.3279989 M20.4994984,24.6712108 C20.2026643,24.5695844 19.9576776,24.3681146 19.7490751,24.0676928 C19.6805516,23.9690379 19.6723651,23.8180841 19.7035949,23.6418723 C19.0244238,24.8845668 18.622682,26.6205354 18.9164842,26.6555995 C19.1823917,26.6873949 19.908559,25.6946062 20.4994984,24.6712108 M22.9678607,22.6588897 L23,23.0187422 C23,23.0187422 21.5206806,24.7490649 20.9894718,24.7490649 C20.9755246,24.7490649 20.9621837,24.7481735 20.9482364,24.7478763 C20.306056,25.8910245 19.4813483,27 19.2048286,27 C18.6736199,27 18.2157858,26.6095408 18.0284074,26.2574143 C17.8407257,25.9052878 18.6154052,23.61602 19.3982711,22.6663185 C19.459821,22.5917331 19.8188114,22.7064342 19.997397,22.8478791 C20.2178244,22.4164127 20.4907056,22.0417026 20.5901556,22.0155532 C20.7966358,21.9620656 21.3693831,22.040514 21.6898669,22.345096 C21.8875542,22.5323025 21.7401984,23.1052137 21.4360874,23.7880717 C22.1440626,23.2986604 22.9678607,22.6588897 22.9678607,22.6588897" id="Fill-13" fill="#231F20" mask="url(#mask-4)"></path>
                <path d="M28,15 L28,67" id="Fill-14" fill="#FEFEFE" mask="url(#mask-4)"></path>
                <polygon id="Fill-15" fill="#231F20" mask="url(#mask-4)" points="28 67 29 67 29 15 28 15"></polygon>
                <path d="M31,15 L31,67" id="Fill-16" fill="#FEFEFE" mask="url(#mask-4)"></path>
                <polygon id="Fill-17" fill="#231F20" mask="url(#mask-4)" points="30 67 31 67 31 15 30 15"></polygon>
                <path d="M34,15 L34,67" id="Fill-18" fill="#FEFEFE" mask="url(#mask-4)"></path>
                <polygon id="Fill-19" fill="#231F20" mask="url(#mask-4)" points="33 67 34 67 34 15 33 15"></polygon>
                <path d="M38,15 L38,67" id="Fill-20" fill="#FEFEFE" mask="url(#mask-4)"></path>
                <polygon id="Fill-21" fill="#231F20" mask="url(#mask-4)" points="37 67 38 67 38 15 37 15"></polygon>
            </g>
        </g>
    </g>
</svg>