<?xml version="1.0" encoding="UTF-8"?>
<svg width="94px" height="42px" viewBox="0 0 94 42" version="1.1" xmlns="http://www.w3.org/2000/svg" xmlns:xlink="http://www.w3.org/1999/xlink">
    <!-- Generator: Sketch 50.2 (55047) - http://www.bohemiancoding.com/sketch -->
    <title>Vocha</title>
    <desc>Created with Sketch.</desc>
    <defs>
        <polygon id="path-1" points="0.216887755 0.203491525 89.7959694 0.203491525 89.7959694 35.7965085 0.216887755 35.7965085"></polygon>
        <polygon id="path-3" points="0.0775862069 0.204183673 8.79268966 0.204183673 8.79268966 14.9656224 0.0775862069 14.9656224"></polygon>
        <polygon id="path-5" points="0 41 94 41 94 0 0 0"></polygon>
    </defs>
    <g id="Servicios" stroke="none" stroke-width="1" fill="none" fill-rule="evenodd">
        <g id="Desktop-Copy-2" transform="translate(-206.000000, -804.000000)">
            <g id="Vocha" transform="translate(206.000000, 804.000000)">
                <path d="M92,15.3969878 L92,32.9476567 C92,34.6264455 90.6219355,36 88.9376344,36 L6.06236559,36 C4.37806452,36 3,34.6264455 3,32.9476567 L3,16.4143338 L6.36860215,4.05234333 C6.36860215,2.3735545 9.39268817,1 14.9049462,1 L83.7061953,1" id="Fill-1" fill="#FEFEFE"></path>
                <g id="Group-5" transform="translate(2.000000, 0.000000)">
                    <mask id="mask-2" fill="white">
                        <use xlink:href="#path-1"></use>
                    </mask>
                    <g id="Clip-4"></g>
                    <path d="M86.4286224,35.7965085 L3.58423469,35.7965085 C1.72760204,35.7965085 0.216887755,34.2909153 0.216887755,32.4405763 L0.216887755,15.8744746 L3.58454082,3.51671186 C3.63260204,1.50223729 7.09117347,0.203186441 12.4235204,0.203186441 L81.1991327,0.203186441 L81.1991327,0.813355932 L12.4235204,0.813355932 C6.77096939,0.813355932 4.19647959,2.23688136 4.19647959,3.55911864 L4.18576531,3.63935593 L0.829132653,15.9559322 L0.829132653,32.4405763 C0.829132653,33.9547119 2.0652551,35.186339 3.58423469,35.186339 L86.4286224,35.186339 C87.947602,35.186339 89.1837245,33.9547119 89.1837245,32.4405763 L89.1837245,14.8985085 L89.7959694,14.8985085 L89.7959694,32.4405763 C89.7959694,34.2909153 88.2852551,35.7965085 86.4286224,35.7965085" id="Fill-3" fill="#272B3D" mask="url(#mask-2)"></path>
                </g>
                <path d="M83,1 C88.7107411,1 90.4092235,2.33567961 90.4092235,3.9681769 L91,15" id="Fill-6" fill="#FEFEFE"></path>
                <g id="Group-10" transform="translate(83.000000, 0.000000)">
                    <mask id="mask-4" fill="white">
                        <use xlink:href="#path-3"></use>
                    </mask>
                    <g id="Clip-9"></g>
                    <path d="M8.17293103,14.9656224 L7.55224138,3.58796939 C7.55193103,1.74327551 5.0372069,0.816336735 0.0775862069,0.816336735 L0.0775862069,0.204091837 C5.44903448,0.204091837 8.17262069,1.33705102 8.17262069,3.57143878 L8.79268966,14.9328673 L8.17293103,14.9656224 Z" id="Fill-8" fill="#272B3D" mask="url(#mask-4)"></path>
                </g>
                <path d="M80,35 C80,38.3137743 77.313706,41 73.9998475,41 C70.686294,41 68,38.3137743 68,35 C68,31.6862257 70.686294,29 73.9998475,29 C77.313706,29 80,31.6862257 80,35" id="Fill-11" fill="#FEFEFE"></path>
                <path d="M74.5,29.6290221 C71.2627377,29.6290221 68.6290221,32.2627377 68.6290221,35.5 C68.6290221,38.7372623 71.2627377,41.3709779 74.5,41.3709779 C77.7372623,41.3709779 80.3709779,38.7372623 80.3709779,35.5 C80.3709779,32.2627377 77.7372623,29.6290221 74.5,29.6290221 M74.5,42 C70.915832,42 68,39.0838535 68,35.5 C68,31.915832 70.915832,29 74.5,29 C78.084168,29 81,31.915832 81,35.5 C81,39.0838535 78.084168,42 74.5,42" id="Fill-13" fill="#272B3D"></path>
                <path d="M28,35 C28,38.3137743 25.313706,41 21.9998475,41 C18.686294,41 16,38.3137743 16,35 C16,31.6862257 18.686294,29 21.9998475,29 C25.313706,29 28,31.6862257 28,35" id="Fill-15" fill="#FEFEFE"></path>
                <path d="M22.5,29.6290221 C19.2627377,29.6290221 16.6290221,32.2627377 16.6290221,35.5 C16.6290221,38.7372623 19.2627377,41.3709779 22.5,41.3709779 C25.7372623,41.3709779 28.3709779,38.7372623 28.3709779,35.5 C28.3709779,32.2627377 25.7372623,29.6290221 22.5,29.6290221 M22.5,42 C18.915832,42 16,39.0838535 16,35.5 C16,31.915832 18.915832,29 22.5,29 C26.084168,29 29,31.915832 29,35.5 C29,39.0838535 26.084168,42 22.5,42" id="Fill-17" fill="#272B3D"></path>
                <path d="M25,36 C25,37.6569714 23.6567346,39 22.0001525,39 C20.3432654,39 19,37.6569714 19,36 C19,34.3430286 20.3432654,33 22.0001525,33 C23.6567346,33 25,34.3430286 25,36" id="Fill-19" fill="#FEFEFE"></path>
                <path d="M22.5,32.6461737 C20.9262439,32.6461737 19.6461737,33.926567 19.6461737,35.5 C19.6461737,37.073433 20.9262439,38.3538263 22.5,38.3538263 C24.0737561,38.3538263 25.3538263,37.073433 25.3538263,35.5 C25.3538263,33.926567 24.0737561,32.6461737 22.5,32.6461737 M22.5,39 C20.5698791,39 19,37.4301209 19,35.5 C19,33.5698791 20.5698791,32 22.5,32 C24.4301209,32 26,33.5698791 26,35.5 C26,37.4301209 24.4301209,39 22.5,39" id="Fill-21" fill="#272B3D"></path>
                <path d="M25,36 C25,37.1045407 24.1045407,38 23,38 C21.8954593,38 21,37.1045407 21,36 C21,34.8954593 21.8954593,34 23,34 C24.1045407,34 25,34.8954593 25,36" id="Fill-23" fill="#FEFEFE"></path>
                <path d="M23,33.598668 C22.2271775,33.598668 21.5986232,34.2275687 21.5986232,35.0001497 C21.5986232,35.7727307 22.2271775,36.401332 23,36.401332 C23.7728225,36.401332 24.4013768,35.7727307 24.4013768,35.0001497 C24.4013768,34.2275687 23.7728225,33.598668 23,33.598668 M23,37 C21.8970368,37 21,36.1028961 21,35.0001497 C21,33.8971039 21.8970368,33 23,33 C24.1029632,33 25,33.8971039 25,35.0001497 C25,36.1028961 24.1029632,37 23,37" id="Fill-25" fill="#272B3D"></path>
                <path d="M77,36 C77,37.6569714 75.6567346,39 74.0001525,39 C72.3432654,39 71,37.6569714 71,36 C71,34.3430286 72.3432654,33 74.0001525,33 C75.6567346,33 77,34.3430286 77,36" id="Fill-27" fill="#FEFEFE"></path>
                <path d="M74.5,32.6461737 C72.9262439,32.6461737 71.6461737,33.926567 71.6461737,35.5 C71.6461737,37.073433 72.9262439,38.3538263 74.5,38.3538263 C76.0737561,38.3538263 77.3538263,37.073433 77.3538263,35.5 C77.3538263,33.926567 76.0737561,32.6461737 74.5,32.6461737 M74.5,39 C72.5702022,39 71,37.4301209 71,35.5 C71,33.5698791 72.5702022,32 74.5,32 C76.4301209,32 78,33.5698791 78,35.5 C78,37.4301209 76.4301209,39 74.5,39" id="Fill-29" fill="#272B3D"></path>
                <path d="M3,16 L92,16" id="Fill-31" fill="#FEFEFE"></path>
                <mask id="mask-6" fill="white">
                    <use xlink:href="#path-5"></use>
                </mask>
                <g id="Clip-34"></g>
                <polygon id="Fill-33" fill="#272B3D" mask="url(#mask-6)" points="3 17 92 17 92 16 3 16"></polygon>
                <path d="M55.4734446,13 L35.5265554,13 C34.6869499,13 34,12.3133266 34,11.474059 L34,5.525941 C34,4.68667345 34.6869499,4 35.5265554,4 L55.4734446,4 C56.3130501,4 57,4.68667345 57,5.525941 L57,11.474059 C57,12.3133266 56.3130501,13 55.4734446,13" id="Fill-35" fill="#FEFEFE" mask="url(#mask-6)"></path>
                <path d="M35.862077,4.57161003 C35.1774534,4.57161003 34.6206923,5.08434424 34.6206923,5.7148301 L34.6206923,11.2851699 C34.6206923,11.91537 35.1774534,12.42839 35.862077,12.42839 L56.137923,12.42839 C56.8225466,12.42839 57.3793077,11.91537 57.3793077,11.2851699 L57.3793077,5.7148301 C57.3793077,5.08434424 56.8225466,4.57161003 56.137923,4.57161003 L35.862077,4.57161003 Z M56.137923,13 L35.862077,13 C34.8351415,13 34,12.2306129 34,11.2851699 L34,5.7148301 C34,4.7691013 34.8351415,4 35.862077,4 L56.137923,4 C57.1648585,4 58,4.7691013 58,5.7148301 L58,11.2851699 C58,12.2306129 57.1648585,13 56.137923,13 Z" id="Fill-36" fill="#272B3D" mask="url(#mask-6)"></path>
                <path d="M80.4855696,13 L62.5144304,13 C61.6814937,13 61,12.3133266 61,11.474059 L61,5.525941 C61,4.68667345 61.6814937,4 62.5144304,4 L80.4855696,4 C81.3185063,4 82,4.68667345 82,5.525941 L82,11.474059 C82,12.3133266 81.3185063,13 80.4855696,13" id="Fill-37" fill="#FEFEFE" mask="url(#mask-6)"></path>
                <path d="M61.8504759,4.57161003 C61.1701176,4.57161003 60.6168253,5.08434424 60.6168253,5.7148301 L60.6168253,11.2851699 C60.6168253,11.91537 61.1701176,12.42839 61.8504759,12.42839 L80.1495241,12.42839 C80.8298824,12.42839 81.3831747,11.91537 81.3831747,11.2851699 L81.3831747,5.7148301 C81.3831747,5.08434424 80.8298824,4.57161003 80.1495241,4.57161003 L61.8504759,4.57161003 Z M80.1495241,13 L61.8504759,13 C60.8299385,13 60,12.2306129 60,11.2851699 L60,5.7148301 C60,4.7691013 60.8299385,4 61.8504759,4 L80.1495241,4 C81.1700615,4 82,4.7691013 82,5.7148301 L82,11.2851699 C82,12.2306129 81.1700615,13 80.1495241,13 Z" id="Fill-38" fill="#272B3D" mask="url(#mask-6)"></path>
                <path d="M87.4999625,13 L86.5000375,13 C85.6750169,13 85,12.3133266 85,11.474059 L85,5.525941 C85,4.68667345 85.6750169,4 86.5000375,4 L87.4999625,4 C88.3249831,4 89,4.68667345 89,5.525941 L89,11.474059 C89,12.3133266 88.3249831,13 87.4999625,13" id="Fill-39" fill="#FEFEFE" mask="url(#mask-6)"></path>
                <path d="M85.5652514,4.57161003 C84.9897606,4.57161003 84.5217505,5.08434424 84.5217505,5.7148301 L84.5217505,11.2851699 C84.5217505,11.91537 84.9897606,12.42839 85.5652514,12.42839 L86.4347486,12.42839 C87.0102394,12.42839 87.4782495,11.91537 87.4782495,11.2851699 L87.4782495,5.7148301 C87.4782495,5.08434424 87.0102394,4.57161003 86.4347486,4.57161003 L85.5652514,4.57161003 Z M86.4347486,13 L85.5652514,13 C84.7020153,13 84,12.2306129 84,11.2851699 L84,5.7148301 C84,4.7691013 84.7020153,4 85.5652514,4 L86.4347486,4 C87.2979847,4 88,4.7691013 88,5.7148301 L88,11.2851699 C88,12.2306129 87.2979847,13 86.4347486,13 Z" id="Fill-40" fill="#272B3D" mask="url(#mask-6)"></path>
                <path d="M28.4934432,13 L8.5065568,13 C7.67795056,13 7,12.3133266 7,11.474059 L8.20524544,5.525941 C8.20524544,4.68667345 8.883196,4 9.71180223,4 L28.4934432,4 C29.3220494,4 30,4.68667345 30,5.525941 L30,11.474059 C30,12.3133266 29.3220494,13 28.4934432,13" id="Fill-41" fill="#FEFEFE" mask="url(#mask-6)"></path>
                <path d="M6.61306712,11.3126072 C6.62869252,11.9302318 7.17251768,12.42839 7.83828223,12.42839 L28.1617178,12.42839 C28.8372865,12.42839 29.3872393,11.91537 29.3872393,11.2851699 L29.3872393,5.7148301 C29.3872393,5.08434424 28.8372865,4.57161003 28.1617178,4.57161003 L9.06380371,4.57161003 C8.38792861,4.57161003 7.83828223,5.08434424 7.83828223,5.7148301 L7.83215462,5.77227691 L6.61306712,11.3126072 Z M28.1617178,13 L7.83828223,13 C6.82446958,13 6,12.2306129 6,11.2851699 L6.00643399,11.2277231 L7.22582787,5.68453477 C7.24329155,4.75281042 8.06102076,4 9.06380371,4 L28.1617178,4 C29.175224,4 30,4.7691013 30,5.7148301 L30,11.2851699 C30,12.2306129 29.175224,13 28.1617178,13 Z" id="Fill-42" fill="#272B3D" mask="url(#mask-6)"></path>
                <path d="M92.4761905,36 L87.5238095,36 C86.6857143,36 86,35.4 86,34.6666667 L86,33.3333333 C86,32.6 86.6857143,32 87.5238095,32 L92.4761905,32 C93.3142857,32 94,32.6 94,33.3333333 L94,34.6666667 C94,35.4 93.3142857,36 92.4761905,36" id="Fill-43" fill="#FEFEFE" mask="url(#mask-6)"></path>
                <path d="M86.9115044,32.5882353 C86.208708,32.5882353 85.6371681,33.1158824 85.6371681,33.7647059 L85.6371681,35.2352941 C85.6371681,35.8841176 86.208708,36.4117647 86.9115044,36.4117647 L92.0884956,36.4117647 C92.791292,36.4117647 93.3628319,35.8841176 93.3628319,35.2352941 L93.3628319,33.7647059 C93.3628319,33.1158824 92.791292,32.5882353 92.0884956,32.5882353 L86.9115044,32.5882353 Z M92.0884956,37 L86.9115044,37 C85.8573097,37 85,36.2085294 85,35.2352941 L85,33.7647059 C85,32.7914706 85.8573097,32 86.9115044,32 L92.0884956,32 C93.1426903,32 94,32.7914706 94,33.7647059 L94,35.2352941 C94,36.2085294 93.1426903,37 92.0884956,37 Z" id="Fill-44" fill="#272B3D" mask="url(#mask-6)"></path>
                <path d="M4.55769231,36 L1.44230769,36 C0.649038462,36 0,35.4 0,34.6666667 L0,33.3333333 C0,32.6 0.649038462,32 1.44230769,32 L4.55769231,32 C5.35096154,32 6,32.6 6,33.3333333 L6,34.6666667 C6,35.4 5.35096154,36 4.55769231,36" id="Fill-45" fill="#FEFEFE" mask="url(#mask-6)"></path>
                <path d="M1.84210526,32.5882353 C1.16482456,32.5882353 0.614035088,33.1158824 0.614035088,33.7647059 L0.614035088,35.2352941 C0.614035088,35.8841176 1.16482456,36.4117647 1.84210526,36.4117647 L5.15789474,36.4117647 C5.83517544,36.4117647 6.38596491,35.8841176 6.38596491,35.2352941 L6.38596491,33.7647059 C6.38596491,33.1158824 5.83517544,32.5882353 5.15789474,32.5882353 L1.84210526,32.5882353 Z M5.15789474,37 L1.84210526,37 C0.826184211,37 0,36.2085294 0,35.2352941 L0,33.7647059 C0,32.7914706 0.826184211,32 1.84210526,32 L5.15789474,32 C6.17381579,32 7,32.7914706 7,33.7647059 L7,35.2352941 C7,36.2085294 6.17381579,37 5.15789474,37 Z" id="Fill-46" fill="#272B3D" mask="url(#mask-6)"></path>
                <path d="M2.29731448,26 C1.5838233,26 1,26.5999837 1,27.3332245 L1,28.6667755 C1,29.4000163 1.5838233,30 2.29731448,30 L3,30 L3,26 L2.29731448,26 Z" id="Fill-47" fill="#FEFEFE" mask="url(#mask-6)"></path>
                <path d="M2.83855799,26.5615217 C2.22365565,26.5615217 1.72341452,26.949814 1.72341452,27.4268267 L1.72341452,28.5728925 C1.72341452,29.050186 2.22365565,29.4384783 2.83855799,29.4384783 L3.27658548,29.4384783 L3.27658548,26.5615217 L2.83855799,26.5615217 Z M4,30 L2.83855799,30 C1.82469255,30 1,29.3598652 1,28.5728925 L1,27.4268267 C1,26.6401348 1.82469255,26 2.83855799,26 L4,26 L4,30 Z" id="Fill-48" fill="#272B3D" mask="url(#mask-6)"></path>
                <path d="M2.29739198,21 C1.58388478,21 1,21.45 1,21.9999 L1,22.9998 C1,23.55 1.58388478,24 2.29739198,24 L3,24 L3,21 L2.29739198,21 Z" id="Fill-49" fill="#FEFEFE" mask="url(#mask-6)"></path>
                <path d="M2.21406556,21.6666667 C1.85346035,21.6666667 1.56038106,22.0153333 1.56038106,22.4443333 L1.56038106,23.5553333 C1.56038106,23.9843333 1.85346035,24.3333333 2.21406556,24.3333333 L2.43961894,24.3333333 L2.43961894,21.6666667 L2.21406556,21.6666667 Z M3,25 L2.21406556,25 C1.5444102,25 1,24.352 1,23.5553333 L1,22.4443333 C1,21.648 1.5444102,21 2.21406556,21 L3,21 L3,25 Z" id="Fill-50" fill="#272B3D" mask="url(#mask-6)"></path>
                <path d="M77,36 C77,37.1045407 76.1045407,38 75,38 C73.8954593,38 73,37.1045407 73,36 C73,34.8954593 73.8954593,34 75,34 C76.1045407,34 77,34.8954593 77,36" id="Fill-51" fill="#FEFEFE" mask="url(#mask-6)"></path>
                <path d="M74,33.598668 C73.2271775,33.598668 72.5986232,34.2275687 72.5986232,35.0001497 C72.5986232,35.7727307 73.2271775,36.401332 74,36.401332 C74.7728225,36.401332 75.4013768,35.7727307 75.4013768,35.0001497 C75.4013768,34.2275687 74.7728225,33.598668 74,33.598668 M74,37 C72.8973361,37 72,36.1028961 72,35.0001497 C72,33.8971039 72.8973361,33 74,33 C75.1029632,33 76,33.8971039 76,35.0001497 C76,36.1028961 75.1029632,37 74,37" id="Fill-52" fill="#272B3D" mask="url(#mask-6)"></path>
                <path d="M85,6 L89,6" id="Fill-53" fill="#FEFEFE" mask="url(#mask-6)"></path>
                <polygon id="Fill-54" fill="#272B3D" mask="url(#mask-6)" points="85 7 89 7 89 6 85 6"></polygon>
                <path d="M85,8 L89,8" id="Fill-55" fill="#FEFEFE" mask="url(#mask-6)"></path>
                <polygon id="Fill-56" fill="#272B3D" mask="url(#mask-6)" points="85 8 89 8 89 7 85 7"></polygon>
                <path d="M85,9 L89,9" id="Fill-57" fill="#FEFEFE" mask="url(#mask-6)"></path>
                <polygon id="Fill-58" fill="#272B3D" mask="url(#mask-6)" points="85 10 89 10 89 9 85 9"></polygon>
                <path d="M85,11 L89,11" id="Fill-59" fill="#FEFEFE" mask="url(#mask-6)"></path>
                <polygon id="Fill-60" fill="#272B3D" mask="url(#mask-6)" points="85 12 89 12 89 11 85 11"></polygon>
                <path d="M85,13 L89,13" id="Fill-61" fill="#FEFEFE" mask="url(#mask-6)"></path>
                <polygon id="Fill-62" fill="#272B3D" mask="url(#mask-6)" points="85 13 89 13 89 12 85 12"></polygon>
                <polygon id="Fill-63" fill="#272B3D" mask="url(#mask-6)" points="60 36 32 35.7931752 32 4 32.6233789 4 32.6233789 35.1923841 59.3766211 35.3895187 59.3766211 4 60 4"></polygon>
                <path d="M37.3795508,20 L34.6201249,20 C34.2779535,20 34,19.7756863 34,19.4998693 C34,19.2243137 34.2779535,19 34.6201249,19 L37.3795508,19 C37.7217222,19 38,19.2243137 38,19.4998693 C38,19.7756863 37.7217222,20 37.3795508,20" id="Fill-64" fill="#272B3D" mask="url(#mask-6)"></path>
                <path d="M29.3796011,20 L26.6203989,20 C26.2782552,20 26,19.7756863 26,19.4998693 C26,19.2243137 26.2782552,19 26.6203989,19 L29.3796011,19 C29.7217448,19 30,19.2243137 30,19.4998693 C30,19.7756863 29.7217448,20 29.3796011,20" id="Fill-65" fill="#272B3D" mask="url(#mask-6)"></path>
                <polygon id="Fill-66" fill="#272B3D" mask="url(#mask-6)" points="6 4 91 4 91 3 6 3"></polygon>
                <path d="M79.5,19.8089524 C79.118932,19.8089524 78.8090615,20.1191857 78.8090615,20.4997978 C78.8090615,20.8808143 79.118932,21.1910476 79.5,21.1910476 C79.881068,21.1910476 80.1909385,20.8808143 80.1909385,20.4997978 C80.1909385,20.1191857 79.881068,19.8089524 79.5,19.8089524 M79.5,22 C78.6731392,22 78,21.3269516 78,20.4997978 C78,19.6730484 78.6731392,19 79.5,19 C80.3272654,19 81,19.6730484 81,20.4997978 C81,21.3269516 80.3272654,22 79.5,22" id="Fill-67" fill="#272B3D" mask="url(#mask-6)"></path>
            </g>
        </g>
    </g>
</svg>